<?xml version="1.0" encoding="UTF-8"?>
<svg xmlns="http://www.w3.org/2000/svg" xmlns:xlink="http://www.w3.org/1999/xlink" viewBox="0 0 900 969.69">
  <defs>
    <style>
      .cls-1 {
        fill: none;
      }

      .cls-2 {
        fill: #fce88d;
      }

      .cls-3 {
        fill: #efb32c;
      }

      .cls-4 {
        fill: url(#linear-gradient-8);
      }

      .cls-5 {
        fill: url(#linear-gradient-7);
      }

      .cls-6 {
        fill: url(#linear-gradient-5);
      }

      .cls-7 {
        fill: url(#linear-gradient-6);
      }

      .cls-8 {
        fill: url(#linear-gradient-9);
      }

      .cls-9 {
        fill: url(#linear-gradient-4);
      }

      .cls-10 {
        fill: url(#linear-gradient-3);
      }

      .cls-11 {
        fill: url(#linear-gradient-2);
      }

      .cls-12 {
        fill: #e59b24;
      }

      .cls-13 {
        fill: url(#linear-gradient);
      }

      .cls-14 {
        fill: #fbfcfe;
      }

      .cls-15 {
        fill: #e5e4e8;
      }

      .cls-16 {
        isolation: isolate;
      }

      .cls-17 {
        mix-blend-mode: multiply;
      }

      .cls-18 {
        fill: #fef9d6;
      }

      .cls-19 {
        fill: #f8d470;
      }

      .cls-20 {
        fill: url(#linear-gradient-10);
      }

      .cls-21 {
        fill: url(#linear-gradient-11);
      }

      .cls-22 {
        fill: url(#linear-gradient-12);
      }

      .cls-23 {
        fill: url(#linear-gradient-13);
      }

      .cls-24 {
        fill: url(#linear-gradient-19);
      }

      .cls-25 {
        fill: url(#linear-gradient-14);
      }

      .cls-26 {
        fill: url(#linear-gradient-21);
      }

      .cls-27 {
        fill: url(#linear-gradient-20);
      }

      .cls-28 {
        fill: url(#linear-gradient-22);
      }

      .cls-29 {
        fill: url(#linear-gradient-15);
      }

      .cls-30 {
        fill: url(#linear-gradient-16);
      }

      .cls-31 {
        fill: url(#linear-gradient-17);
      }

      .cls-32 {
        fill: url(#linear-gradient-18);
      }

      .cls-33 {
        fill: #f9ecad;
      }

      .cls-34 {
        fill: #f3c446;
      }

      .cls-35 {
        fill: url(#Generated_Pattern_4-3);
      }

      .cls-35, .cls-36, .cls-37, .cls-38 {
        stroke: #58595b;
        stroke-miterlimit: 10;
        stroke-width: 4px;
      }

      .cls-36 {
        fill: url(#Generated_Pattern_4-2);
      }

      .cls-37 {
        fill: url(#Generated_Pattern_6);
        mix-blend-mode: lighten;
      }

      .cls-38 {
        fill: url(#Generated_Pattern_4);
      }

      .cls-39 {
        fill: #c9c9d0;
      }
    </style>
    <linearGradient id="linear-gradient" x1="-120262.96" y1="-129611.23" x2="-120412.96" y2="-129611.54" gradientTransform="translate(30104.75 -32276.25) scale(.25 -.25)" gradientUnits="userSpaceOnUse">
      <stop offset="0" stop-color="#fdf3c4"/>
      <stop offset="1" stop-color="#f1c54c"/>
    </linearGradient>
    <linearGradient id="linear-gradient-2" x1="-119751.12" y1="-130020.44" x2="-120122.12" y2="-130020.8" gradientTransform="translate(30104.75 -32276.25) scale(.25 -.25)" gradientUnits="userSpaceOnUse">
      <stop offset="0" stop-color="#fdf4c6"/>
      <stop offset=".77" stop-color="#eaae31"/>
    </linearGradient>
    <linearGradient id="linear-gradient-3" x1="-120264.45" y1="-129207.35" x2="-120412.45" y2="-129208.13" gradientTransform="translate(30104.75 -32276.25) scale(.25 -.25)" gradientUnits="userSpaceOnUse">
      <stop offset="0" stop-color="#fdf3c1"/>
      <stop offset="1" stop-color="#f1c54d"/>
    </linearGradient>
    <linearGradient id="linear-gradient-4" x1="-120412.36" y1="-130020.5" x2="-120263.36" y2="-130020.56" gradientTransform="translate(30104.75 -32276.25) scale(.25 -.25)" gradientUnits="userSpaceOnUse">
      <stop offset="0" stop-color="#f1c54d"/>
      <stop offset="1" stop-color="#fdf4c6"/>
    </linearGradient>
    <linearGradient id="linear-gradient-5" x1="-120192.63" y1="-130112.81" x2="-120141.1" y2="-130119.81" gradientTransform="translate(30104.75 -32276.25) scale(.25 -.25)" gradientUnits="userSpaceOnUse">
      <stop offset="0" stop-color="#fdfbe3"/>
      <stop offset="1" stop-color="#fdf1b4"/>
    </linearGradient>
    <linearGradient id="linear-gradient-6" x1="-119680.38" y1="-130112.04" x2="-119629.05" y2="-130120.4" gradientTransform="translate(30104.75 -32276.25) scale(.25 -.25)" gradientUnits="userSpaceOnUse">
      <stop offset="0" stop-color="#fdfbe1"/>
      <stop offset="1" stop-color="#fdf0b2"/>
    </linearGradient>
    <linearGradient id="linear-gradient-7" x1="-119681.07" y1="-129603.82" x2="-119629.1" y2="-129605.65" gradientTransform="translate(30104.75 -32276.25) scale(.25 -.25)" gradientUnits="userSpaceOnUse">
      <stop offset="0" stop-color="#fbfbe8"/>
      <stop offset="1" stop-color="#fdf0b1"/>
    </linearGradient>
    <linearGradient id="linear-gradient-8" x1="-119432.3" y1="-129718.8" x2="-119574.11" y2="-129743.83" gradientTransform="translate(30104.75 -32276.25) scale(.25 -.25)" gradientUnits="userSpaceOnUse">
      <stop offset="0" stop-color="#e09c26"/>
      <stop offset=".94" stop-color="#f7cd5f"/>
    </linearGradient>
    <linearGradient id="linear-gradient-9" x1="-119663.78" y1="-129974.95" x2="-119426.4" y2="-130002.67" gradientTransform="translate(30104.75 -32276.25) scale(.25 -.25)" gradientUnits="userSpaceOnUse">
      <stop offset="0" stop-color="#fef9d2"/>
      <stop offset=".49" stop-color="#f1bc37"/>
      <stop offset="1" stop-color="#de9b27"/>
    </linearGradient>
    <linearGradient id="linear-gradient-10" x1="-119435.06" y1="-129869.35" x2="-119845.06" y2="-129870.39" gradientTransform="translate(30104.75 -32276.25) scale(.25 -.25)" gradientUnits="userSpaceOnUse">
      <stop offset=".28" stop-color="#f1c34a"/>
      <stop offset="1" stop-color="#e8a92a"/>
    </linearGradient>
    <linearGradient id="linear-gradient-11" x1="-119665.02" y1="-129464.7" x2="-119424.21" y2="-129488.76" gradientTransform="translate(30104.75 -32276.25) scale(.25 -.25)" gradientUnits="userSpaceOnUse">
      <stop offset="0" stop-color="#fef9d4"/>
      <stop offset=".5" stop-color="#f1bb37"/>
      <stop offset="1" stop-color="#df9b26"/>
    </linearGradient>
    <linearGradient id="linear-gradient-12" x1="-119432.29" y1="-129195.88" x2="-119653.48" y2="-129231.24" gradientTransform="translate(30104.75 -32276.25) scale(.25 -.25)" gradientUnits="userSpaceOnUse">
      <stop offset="0" stop-color="#e19d26"/>
      <stop offset=".54" stop-color="#f2bd39"/>
      <stop offset="1" stop-color="#fff6c3"/>
    </linearGradient>
    <linearGradient id="linear-gradient-13" x1="-119435.39" y1="-129358.85" x2="-119844.39" y2="-129359.82" gradientTransform="translate(30104.75 -32276.25) scale(.25 -.25)" gradientUnits="userSpaceOnUse">
      <stop offset=".28" stop-color="#f1c34a"/>
      <stop offset="1" stop-color="#e8a92a"/>
    </linearGradient>
    <linearGradient id="linear-gradient-14" x1="-119752.83" y1="-129208.09" x2="-120056.83" y2="-129208.59" gradientTransform="translate(30104.75 -32276.25) scale(.25 -.25)" gradientUnits="userSpaceOnUse">
      <stop offset="0" stop-color="#fdf3c0"/>
      <stop offset=".42" stop-color="#f4cd55"/>
      <stop offset="1" stop-color="#ebae31"/>
    </linearGradient>
    <linearGradient id="linear-gradient-15" x1="-119943.59" y1="-129207.02" x2="-120085.47" y2="-129231.62" gradientTransform="translate(30104.75 -32276.25) scale(.25 -.25)" gradientUnits="userSpaceOnUse">
      <stop offset="0" stop-color="#df9c26"/>
      <stop offset=".94" stop-color="#f7cd5d"/>
    </linearGradient>
    <linearGradient id="linear-gradient-16" x1="-120105.88" y1="-129192.3" x2="-120177.74" y2="-129196.83" gradientTransform="translate(30104.75 -32276.25) scale(.25 -.25)" gradientUnits="userSpaceOnUse">
      <stop offset="0" stop-color="#fce694"/>
      <stop offset="1" stop-color="#fff7c5"/>
    </linearGradient>
    <linearGradient id="linear-gradient-17" x1="-120178.67" y1="-129978.1" x2="-119935.59" y2="-129999.22" gradientTransform="translate(30104.75 -32276.25) scale(.25 -.25)" gradientUnits="userSpaceOnUse">
      <stop offset="0" stop-color="#fef9d1"/>
      <stop offset=".48" stop-color="#f1bc37"/>
      <stop offset="1" stop-color="#de9b27"/>
    </linearGradient>
    <linearGradient id="linear-gradient-18" x1="-119594.31" y1="-129703.28" x2="-119667.14" y2="-129708.25" gradientTransform="translate(30104.75 -32276.25) scale(.25 -.25)" gradientUnits="userSpaceOnUse">
      <stop offset="0" stop-color="#fce694"/>
      <stop offset="1" stop-color="#fff7c7"/>
    </linearGradient>
    <linearGradient id="linear-gradient-19" x1="-120192.65" y1="-129603.72" x2="-120141.7" y2="-129606.06" gradientTransform="translate(30104.75 -32276.25) scale(.25 -.25)" gradientUnits="userSpaceOnUse">
      <stop offset="0" stop-color="#fcfbe3"/>
      <stop offset="1" stop-color="#fdf0b4"/>
    </linearGradient>
    <linearGradient id="linear-gradient-20" x1="-119751.78" y1="-129611.68" x2="-120122.78" y2="-129612.58" gradientTransform="translate(30104.75 -32276.25) scale(.25 -.25)" gradientUnits="userSpaceOnUse">
      <stop offset="0" stop-color="#fdf4c6"/>
      <stop offset=".77" stop-color="#e9ae30"/>
    </linearGradient>
    <linearGradient id="linear-gradient-21" x1="-120180.96" y1="-129468.05" x2="-119933.53" y2="-129484.8" gradientTransform="translate(30104.75 -32276.25) scale(.25 -.25)" gradientUnits="userSpaceOnUse">
      <stop offset="0" stop-color="#fef9d5"/>
      <stop offset=".47" stop-color="#f2be3a"/>
      <stop offset="1" stop-color="#de9b27"/>
    </linearGradient>
    <linearGradient id="linear-gradient-22" x1="-119944.95" y1="-129707.27" x2="-120166.97" y2="-129743.79" gradientTransform="translate(30104.75 -32276.25) scale(.25 -.25)" gradientUnits="userSpaceOnUse">
      <stop offset="0" stop-color="#e09c26"/>
      <stop offset=".54" stop-color="#f2bd39"/>
      <stop offset="1" stop-color="#fff7c1"/>
    </linearGradient>
    <pattern id="Generated_Pattern_4" data-name="Generated Pattern 4" x="0" y="0" width="256" height="256" patternTransform="translate(23553.75 23830.75) scale(3.92)" patternUnits="userSpaceOnUse" viewBox="0 0 256 256">
      <g>
        <rect class="cls-1" width="256" height="256"/>
        <path class="cls-13" d="M29.5,106c4.96,4.15,10.17,7.83,15.75,11.12-.63.97-2.83-1.82-3.38-1.38l-.38,30.62,9.75-10.62c.05.2.12.24.25.75-12.87,16.12-29.63,28.52-44,43.25C5.49,174.57,3.21,169.31,0,164.75v-80.25l4.5-11c3.03,2,3.41,5.7,5.25,8.88,5.49,9.51,11.37,16.61,19.75,23.62Z"/>
        <path class="cls-11" d="M135,203.75c2.43,7.23,7.33,14.4,12.25,20.25,3.25,3.87,16.59,16.81,21,17.75l4.75,3c-.09.13.52.45.12.75l-3.38-1.88-.25,12.38h-97.25v-6c3.57.94,16.46-2.76,20.38-4.25,19.69-7.5,33.82-24,39.88-44,.74.16,1.86,1.48,2.5,2Z"/>
        <path class="cls-3" d="M256,164c-8.22-12.78-18.06-22.64-32-29-1.99-.91-3.93-1.77-6-2.5-.75-.26-1.43-.32-2-.5-.24-.08-.49-.17-.75-.25-2.96-.9-5.28-1.86-8.5-2.25-.08,0-.17,0-.25,0-1.79-.69-3.8-.51-5.62-.75-.62-.08-.58-.74-.62-.75v-5.75c23.71-1.64,45.15-15.42,55.75-36.75v78.5Z"/>
        <path class="cls-10" d="M41.5,0l.12,18.75,9.62-11s.13.27.25.75c-7.34,10.23-17.3,17.75-26.38,26.25-4.56,4.28-12.06,13.23-16.62,16.38-.47.32-.55.51-1.25.38C5.27,46.4,3.25,41.19,0,36.75V0h41.5Z"/>
        <path class="cls-9" d="M7,203.75c2.56,7.87,7.86,15.04,13.25,21.25,3.22,3.71,6.49,7.19,10.38,10.25l14.38,9.75s.67.47-.12.5l-3.12-1.88-.25,12.38H0v-43.5l4.5-10.75c1.01.5,1.66,1.3,2.5,2Z"/>
        <path class="cls-3" d="M256,213.5v42.5h-55.75v-6c8.95-.13,19.11-3.17,27-7.5,12.8-5.87,22.15-16.83,28.75-29Z"/>
        <path class="cls-34" d="M256,193.25v2.5c-24.73-3.6-49.72,4.39-65.5,24-6.66,8.27-11.9,18.2-14,28.62l5.75,1.12c1.08,1.54.24,4.46.5,6.5h-13.25l.25-12.38,3.38,1.88c.4-.3-.22-.62-.12-.75.48-.67.3-.6.5-1,7.07-13.99,9.07-22.86,22.12-34,16.94-14.45,38.38-19.46,60.38-16.5Z"/>
        <path class="cls-34" d="M100,194l.75,2.5c-11.31,2.27-21.85,7.74-30.5,15.25-10.9,9.47-18.68,22.49-21.75,36.62.16.45,1.54.52,2,.62.71.17,4.01.41,4.25.88.34.65-.25,5.03,0,6.12h-13.25l.25-12.38,3.12,1.88c.8-.03.11-.48.12-.5.2-.36.5-.84.5-1.25,1.88-2.85,2.58-6.47,4-9.62,9.2-20.51,28.32-35.89,50.5-40.12Z"/>
        <path class="cls-3" d="M9.5,206c-.27-.4-1.51-2.41-1.62-2.5-.04-.03-.54.53-.88.25-.84-.7-1.49-1.5-2.5-2-.03-.02.1-.39-.12-.5L0,211.25v-5c.69-2.53,4.61-10.52,4.5-12.62-.02-.43.03-.6-.38-.88H0v-8l4.5-.38c.65-.91-3.16-11.77-4.5-13.12v-5.5c3.95,5.61,5.86,12.27,8.25,18.62l5-4.5-.25,31.25-3.5-5.12Z"/>
        <path class="cls-3" d="M206.5,129.5c.08,0,.17,0,.25,0,2.21,1.11,5.69,1.9,8.5,2.25.26.08.51.17.75.25-.4.61,2.05.97,2,.5,2.07.73,4.01,1.59,6,2.5l11.12,6.75c2.59,2.12,5.22,4.16,7.62,6.5-1.77-.08-.51,2.33-2.5,1-2.62-2.45-6.38-5.56-9.38-7.5s-6.83-4.09-10.12-4.88c15.73,7.11,27.75,19.7,35.25,35.12v6.25c-6.6-17.16-18.22-30.45-34.75-38.5-4.42-2.15-7.13-3.4-12-4.5.28-1.23-2.05-1.23-.88-2.25,1.05-.28,7.04,2.47,8.25,2.5.41.01.94-.05.5-.5-5.5-1.66-11.09-3.54-16.88-3.75-.8-1.47-.21-.77.25-2,1.72.07,5.11.15,6,.25ZM219.12,136c-.25.14.22.5.25.5.47-.05.39-.84-.25-.5Z"/>
        <path class="cls-3" d="M256,205.25c-6.36,15.9-18.15,29.95-34.25,36.5-6.86,2.79-14.61,4.28-22,4.75-2.74-1.17-8.06,1.78-6.75-3,3.48.02,7.71.19,11.12-.25,1.09-.14,5.45-1.78,5.75-1.75.5.06.12.75.25.75,3.76-.12,6.01-1.42,9.38-2.75,18.47-7.3,30.75-22.4,36.5-41.25v7Z"/>
        <path class="cls-34" d="M53.25,0l-3.5.62c.35,2.4.93,4.78,1.5,7.12l-9.62,11L41.5,0h11.75Z"/>
        <path class="cls-33" d="M180.25,141c-2.11,1.63-6.53,7.52-9.12,10-9.83,9.39-21.22,17.26-29.62,28.12l.25,33.75c6.79,9.98,16.38,19.32,26.37,26.12,1.19.81,4.84,3.69,6,2.75.49-.39,3.7-9.81,4.62-11.62,13.52-26.62,41.16-39.21,70.25-37.88.08,0,.17,0,.25,0,2.25.11,4.49.41,6.75.25v.75c-22-2.96-43.43,2.05-60.38,16.5-13.05,11.14-15.06,20.01-22.12,34-.11-.95-1.05-1.19-1.75-1.5-8.08-6.19-16.48-12.07-23.25-19.75-4.99-5.66-7.05-10.58-11-16.5l3.5,5.12v-31.38l.25-1c6.09-6.58,11.21-11.63,17.75-17.75,5.48-5.13,17.49-14.24,21-20.25l.25.25Z"/>
        <path class="cls-3" d="M217.5,172c11.26,6.81,25.4,8.68,38.5,7.75v2.25c-13.97,1.14-27.74-.7-40.25-7l-.75-2.62c.61.1.94-.61,1-.62.67-.14,1.02.15,1.5.25Z"/>
        <path class="cls-6" d="M72,249.75c-.03.25.09.21.25.25v6h-17.5c-.25-1.1.34-5.48,0-6.12-.24-.46-3.54-.71-4.25-.88-.2-.56.24-.71.25-.75,6.75,1.87,14.28,1.97,21.25,1.5Z"/>
        <path class="cls-7" d="M200.25,249.75v6.25h-17.5c-.26-2.04.58-4.96-.5-6.5v-.25c4.8.85,13.16,1.07,18,.5Z"/>
        <path class="cls-2" d="M187,148c4.11,6.85,11.92,15.64,18.25,20.5-.4.71,2.18,2.38,2.75,2.75-.07,1.61,2.05,2.65,3.38,3.5,8.16,5.22,20.78,8.44,30.38,9.25,4.77.4,9.46.28,14.25.25v.5c-1.85-.02-3.65.23-5.5.25-.59,0-1.32.25-1.5.25-27.52-.53-50.92-13.66-64.5-37.5l2.5.25Z"/>
        <path class="cls-34" d="M256,212.25c-5.52,10.78-11.92,18.5-21.75,25.5l.25-2.5c9.57-6.99,16.54-17.67,21.5-28.25v5.25Z"/>
        <path class="cls-33" d="M36.5,156.75c-7.85,7.26-16.39,13.84-23,22.38,1.27,9.55-1.69,24.01,0,33,1.23,6.52,21.01,22.59,26.75,26.88,1.27.94,2.6,1.81,3.88,2.75.35.26,1.2.21,1.25.25.24.2-.25.32-.12.75-8.4-5.42-17.53-12.06-24.25-19.5-5.19-5.75-7.44-11.16-11.5-17.25l3.5,5.12.25-31.25-5,4.5C5.86,178.02,3.95,171.36,0,165.75v-1c3.21,4.56,5.49,9.82,7.5,15,.22.57.64,3.76,1.38,3.75,7.95-10.39,17.96-18.22,27.38-27l.25.25Z"/>
        <path class="cls-33" d="M256,198.25c-5.75,18.85-18.03,33.95-36.5,41.25,2.82-1.99,6.19-3.16,9.12-5,12.68-7.94,22.35-21.14,26.12-35.62-15.2-2.53-30.86.09-44.12,7.88l-7.62,5c5.17-4.33,10.72-7.52,17-10s14.01-4.4,21.12-4.75c4.07-.2,10.69,1.02,14,.5,1.01-.16.33-.26.88-.75v1.5Z"/>
        <path class="cls-33" d="M256,178.25v1.5c-13.1.93-27.24-.94-38.5-7.75,2.81.61,6.46,3.05,9.38,4,8.94,2.93,18.55,2.92,27.88,2.12-5.15-16.83-17.77-29.64-33.12-37.62-.23-.12-1.03-.49-.38-.75,16.53,8.05,28.15,21.34,34.75,38.5Z"/>
        <path class="cls-3" d="M242.75,148.25c5.12,4.99,9.28,10.84,13.25,16.75v5.5c-4.42-7.75-9.2-15.12-15.75-21.25,1.99,1.33.73-1.08,2.5-1Z"/>
        <path class="cls-3" d="M256,196.5v.25c-.55.49.13.59-.88.75-3.31.52-9.93-.7-14-.5-7.11.35-14.54,2.15-21.12,4.75.67-1.4-.72-.63-.75-2,11.82-4.33,24.32-5.11,36.75-3.25Z"/>
        <path class="cls-3" d="M256,184.75v7.75c-2.26.16-4.5-.14-6.75-.25,1.67-2.08.86-4.79,1.25-7.25,1.85-.02,3.65-.27,5.5-.25Z"/>
        <path class="cls-33" d="M256,195.75v.75c-12.43-1.86-24.93-1.08-36.75,3.25-10.85,3.98-21.42,11.35-28.5,20.5l-.25-.5c15.78-19.61,40.77-27.6,65.5-24Z"/>
        <path class="cls-2" d="M256,85.5c-10.6,21.33-32.04,35.11-55.75,36.75v-.5c.82-.06,1.68-.16,2.5-.25,11.06-1.17,21.79-5.12,31-11.25,9.98-6.63,16.72-15.49,22.25-26v1.25Z"/>
        <path class="cls-2" d="M240.25,149.25c6.55,6.13,11.33,13.5,15.75,21.25v1.5c-7.5-15.42-19.52-28.02-35.25-35.12,3.3.78,7.2,2.98,10.12,4.88s6.76,5.05,9.38,7.5Z"/>
        <path class="cls-2" d="M215.75,175c12.51,6.3,26.28,8.14,40.25,7v.5c-4.93.25-9.82.37-14.75,0-11.86-.88-23.32-4.8-33.25-11.25-.57-.37-3.15-2.04-2.75-2.75,3.11,2.39,6.99,4.73,10.5,6.5Z"/>
        <path class="cls-2" d="M256,207c-4.96,10.58-11.93,21.26-21.5,28.25-4.05,2.96-8.27,4.64-12.75,6.5,16.1-6.55,27.89-20.6,34.25-36.5v1.75Z"/>
        <path class="cls-3" d="M0,184v-11.25l3.75,10.62c-.22.66-3.08.67-3.75.62Z"/>
        <path class="cls-3" d="M0,56c0-.5,0-1,0-1.5,0-.03.43-.16.5-.38L0,54v-9.25l3.75,10.62c-.22.66-3.08.67-3.75.62Z"/>
        <path class="cls-3" d="M256,182.5v1.75c-4.79.03-9.48.15-14.25-.25-.18-.96-1.12-.07-.5-1.5,4.93.37,9.82.25,14.75,0Z"/>
        <path class="cls-2" d="M256,164v1c-3.97-5.91-8.13-11.76-13.25-16.75-2.4-2.34-5.03-4.38-7.62-6.5l-11.12-6.75c13.94,6.36,23.78,16.22,32,29Z"/>
        <path class="cls-2" d="M256,213.5c-6.6,12.17-15.95,23.13-28.75,29,2.24-1.23,4.88-3.24,7-4.75,9.83-7,16.23-14.72,21.75-25.5v1.25Z"/>
        <polygon class="cls-3" points="0 204.25 0 193.25 3.5 193.88 0 204.25"/>
        <polygon class="cls-3" points="0 76.25 0 65.25 3.5 65.88 0 76.25"/>
        <path class="cls-33" d="M0,78v-1.75l3.5-10.38L0,65.25v-.5h4.12c.41.28.35.45.38.88C4.61,67.67.82,75.61,0,78Z"/>
        <path class="cls-33" d="M0,206.25v-2l3.5-10.38L0,193.25v-.5h4.12c.41.28.35.45.38.88.11,2.1-3.81,10.1-4.5,12.62Z"/>
        <path class="cls-33" d="M0,184.75v-.75c.67.05,3.53.03,3.75-.62L0,172.75v-1.5c1.34,1.35,5.15,12.22,4.5,13.12L0,184.75Z"/>
        <path class="cls-33" d="M0,56.75v-.75c.67.05,3.53.03,3.75-.62L0,44.75v-1.5l4.5,12.88L0,56.75Z"/>
        <path class="cls-2" d="M4.5,201.75L0,212.5v-1.25l4.38-10c.22.11.09.48.12.5Z"/>
        <polygon class="cls-2" points="4.5 73.5 0 84.5 0 83.25 4.5 73.5"/>
        <path class="cls-2" d="M0,54.5v-.5l.5.12C.43,54.34,0,54.47,0,54.5Z"/>
        <path class="cls-3" d="M51.5,136.5c.14.54,1.27,2.95,1.25,3.12-.24,1.92-14.16,14.69-16.5,16.88-9.41,8.78-19.42,16.61-27.38,27-.74.01-1.15-3.18-1.38-3.75,14.37-14.73,31.13-27.13,44-43.25Z"/>
        <path class="cls-3" d="M141,179.75v31.38l-3.5-5.12c-.27-.4-1.51-2.41-1.62-2.5-.04-.03-.53.53-.88.25-.64-.52-1.76-1.84-2.5-2l-.5-.12c-.5,1.84-1.25,3.63-2,5.38l-1.12-1.25.12,1.62-1.25-.38c1.92-4.48,3.51-9.15,4.75-13.88-.21-.54-10.24-.83-11.5-.88v-.25c2.27-.75.91-5.16,1.5-7,3.29-.03,6.58-.48,9.88-.5.68-.48-1.16-5.28-1.12-6.25.11-3.11,2.04-.45,1.5-3.25,1.34,3.12,2.32,6.37,3.62,9.5l4.62-4.75Z"/>
        <path class="cls-3" d="M148.5,222.5c6.77,7.68,15.17,13.56,23.25,19.75-2.18-.96-1.69-.11-3.5-.5-4.41-.94-17.75-13.88-21-17.75.77-.67.02-2.09,1.25-1.5Z"/>
        <path class="cls-2" d="M132.5,201.75c-6.05,20-20.19,36.5-39.88,44-3.92,1.49-16.8,5.19-20.38,4.25-.16-.04-.28,0-.25-.25.91-.06,1.84-.15,2.75-.25,11.45-1.22,22.61-5.4,32-12,11.67-8.2,17.68-17.6,23.25-30.5.75-1.74,1.5-3.54,2-5.38l.5.12Z"/>
        <path class="cls-3" d="M137.5,206c3.95,5.92,6.01,10.84,11,16.5-1.23-.59-.48.83-1.25,1.5-4.92-5.85-9.82-13.02-12.25-20.25.34.28.84-.28.88-.25.12.09,1.36,2.1,1.62,2.5Z"/>
        <path class="cls-34" d="M171.75,242.25c.7.31,1.64.55,1.75,1.5-.2.4-.02.33-.5,1l-4.75-3c1.81.39,1.32-.46,3.5.5Z"/>
        <path class="cls-5" d="M200.25,121.75v6.25c-.58-.06-1.66.31-2.5.25-5.01-.33-9.87-.29-14.88,0-.2.01-.1-.5-.12-.5-.51-2.54,1.35-5.65-1.5-6.5l.25-.25c5.4,1.19,13.21,1.13,18.75.75Z"/>
        <path class="cls-2" d="M200.25,128s0,.67.62.75c1.83.24,3.84.06,5.62.75-.89-.1-4.28-.18-6-.25-4.09-.18-8.16-.09-12.25,0l9.5-1c.84.06,1.92-.31,2.5-.25Z"/>
        <path class="cls-34" d="M215.25,131.75c-2.81-.35-6.29-1.14-8.5-2.25,3.22.39,5.54,1.35,8.5,2.25Z"/>
        <path class="cls-19" d="M218,132.5c.05.47-2.4.11-2-.5.57.18,1.25.24,2,.5Z"/>
        <path class="cls-3" d="M45.25,242.75c.09.31.25.72.25,1,0,.41-.3.89-.5,1.25l-14.38-9.75c-3.89-3.06-7.15-6.54-10.38-10.25l.75-1.75c6.72,7.44,15.85,14.08,24.25,19.5Z"/>
        <path class="cls-3" d="M9.5,206c4.06,6.09,6.31,11.5,11.5,17.25l-.75,1.75c-5.39-6.21-10.69-13.38-13.25-21.25.33.28.84-.28.88-.25.12.09,1.36,2.1,1.62,2.5Z"/>
        <path class="cls-3" d="M234.5,235.25l-.25,2.5c-2.12,1.51-4.76,3.52-7,4.75-7.89,4.33-18.05,7.37-27,7.5v-.25c.51-.06,1.5-.15,1.88-.5l-5.25.25.38-2.25c9.32-.18,16.21-2.06,24.5-5.5,4.48-1.86,8.7-3.54,12.75-6.5Z"/>
        <path class="cls-18" d="M190.75,220.25c-6.08,7.86-10.72,18.23-12,28.12,1.14.25,2.37.67,3.5.88v.25l-5.75-1.12c2.1-10.42,7.34-20.36,14-28.62l.25.5Z"/>
        <path class="cls-3" d="M106.5,235.25l.25,2.25c-9.39,6.6-20.55,10.78-32,12h-6.12l.62-2.25c2.76-.05,6.64-.34,9.38-.75.82-.12,6.72-1.28,7-1.5.2-.16.21-.65,0-.75-4.54,1.39-9.37,1.99-14.12,2.25-3.03-1.19-7.54,1.82-7-3,6.66.06,13.8-.42,20.25-1.5,2.05-.34,7.08-2.34,9.12-3.25,16.89-7.53,29.11-23.27,34.12-40.88-12.12-1.98-24.63-.6-36,3.88l-.75-2c8.73-3.19,18.3-4.55,27.62-4.25,1.53.05,8.46,1.26,9.25,1,.08-.03.49-.37.25-.5-8.97-1.59-18.68-1.29-27.62.5l-.75-2.5c10.45-1.99,21-1.78,31.5-.12-5.38,22.61-20.17,42.8-43,49.75,2.2.11,4.37-1.02,6.38-1.88,3.4-1.45,8.65-4.32,11.62-6.5Z"/>
        <path class="cls-33" d="M121,192.25c1.26.05,11.29.34,11.5.88-1.24,4.73-2.83,9.39-4.75,13.88-4.56,10.67-11.81,21.32-21.25,28.25-2.97,2.18-8.22,5.05-11.62,6.5-2,.86-4.17,1.98-6.38,1.88,22.83-6.95,37.62-27.14,43-49.75-10.5-1.66-21.05-1.87-31.5.12-22.18,4.23-41.3,19.62-50.5,40.12-1.42,3.16-2.12,6.78-4,9.62,0-.28-.16-.69-.25-1,1.3-.15.46-.82.5-.88,1.93-3.2,3.02-7.75,4.75-11.25,13.48-27.16,41.06-39.53,70.5-38.38Z"/>
        <path class="cls-18" d="M70.25,211.75l.25.25c-10.36,9.21-17.74,22.48-19.75,36.25,0,.04-.45.19-.25.75-.46-.11-1.84-.17-2-.62,3.07-14.13,10.85-27.16,21.75-36.62Z"/>
        <path class="cls-33" d="M91.25,199.75c-7.22,2.64-15.01,7.15-20.75,12.25l-.25-.25c8.65-7.51,19.19-12.98,30.5-15.25,8.95-1.79,18.65-2.09,27.62-.5.24.13-.17.47-.25.5-.79.26-7.72-.95-9.25-1-9.32-.3-18.9,1.06-27.62,4.25Z"/>
        <path class="cls-4" d="M209.25,135.25c4.87,1.1,7.58,2.35,12,4.5-.66.26.15.63.38.75,15.35,7.99,27.98,20.79,33.12,37.62-9.32.79-18.93.8-27.88-2.12-2.91-.95-6.56-3.39-9.38-4-.48-.1-.83-.39-1.5-.25-1.78-1.12-3.51-2.32-5.25-3.5l-6-33.5c1.46.26,2.98.16,4.5.5Z"/>
        <path class="cls-34" d="M200.5,129.25c-.46,1.23-1.05.53-.25,2-2.7-.1-5.77.34-8.5.5s-5.51.17-8.25.38c5.18,15.05,14.14,27.19,27.25,36.12,1.74,1.18,3.47,2.38,5.25,3.5-.06.01-.39.72-1,.62l.75,2.62c-3.51-1.77-7.39-4.11-10.5-6.5-6.33-4.86-14.14-13.65-18.25-20.5-1.27-2.11-8.58-17.22-7.75-18.38,2.96-.67,6.01-.31,9-.38,4.09-.09,8.16-.18,12.25,0Z"/>
        <path class="cls-34" d="M200.25,131.25c5.79.21,11.38,2.09,16.88,3.75.44.45-.09.51-.5.5-1.21-.03-7.2-2.78-8.25-2.5-1.18,1.02,1.15,1.02.88,2.25-1.52-.34-3.04-.24-4.5-.5-.82-.15-2.11-.73-3.12-.75l.5-1-10.38-1.25c2.73-.16,5.8-.6,8.5-.5Z"/>
        <path class="cls-34" d="M219.12,136c.64-.34.72.45.25.5-.03,0-.5-.36-.25-.5Z"/>
        <path class="cls-8" d="M219.5,239.5c-3.37,1.33-5.61,2.63-9.38,2.75-.13,0,.25-.69-.25-.75-.3-.03-4.66,1.61-5.75,1.75-3.41.44-7.65.27-11.12.25-3.22-.02-6.42.09-9.62-.25-.67-.27,1.46-6.12,1.88-7.12,3.62-8.89,10.41-18.22,17.75-24.38l7.62-5c13.26-7.78,28.93-10.41,44.12-7.88-3.77,14.48-13.44,27.68-26.12,35.62-2.93,1.84-6.31,3.01-9.12,5Z"/>
        <path class="cls-34" d="M219.25,199.75c.03,1.37,1.42.6.75,2-6.28,2.48-11.83,5.67-17,10-7.34,6.15-14.13,15.49-17.75,24.38-.41,1.01-2.55,6.86-1.88,7.12,3.21.34,6.4.23,9.62.25-1.31,4.78,4.01,1.83,6.75,3-2.31.15-4.83.3-7.12.25-1.96-.04-9.08-1.26-10.25-1-.06.01-.5.37-.25.5,5.03.36,10.07,1.1,15.12,1l-.38,2.25,5.25-.25c-.37.35-1.36.44-1.88.5-4.84.57-13.2.35-18-.5-1.13-.2-2.36-.63-3.5-.88,1.28-9.9,5.92-20.27,12-28.12,7.08-9.15,17.65-16.52,28.5-20.5Z"/>
        <path class="cls-2" d="M221.75,241.75c-8.29,3.44-15.18,5.32-24.5,5.5-5.06.1-10.1-.64-15.12-1-.25-.13.19-.49.25-.5,1.17-.26,8.29.96,10.25,1,2.3.05,4.81-.1,7.12-.25,7.39-.47,15.14-1.96,22-4.75Z"/>
        <path class="cls-20" d="M184.5,147.75c13.58,23.84,36.98,36.97,64.5,37.5v7c-29.09-1.34-56.73,11.25-70.25,37.88-.92,1.82-4.14,11.23-4.62,11.62-1.16.94-4.81-1.94-6-2.75-9.99-6.8-19.58-16.14-26.37-26.12l-.25-33.75c8.41-10.86,19.79-18.74,29.62-28.12,2.59-2.48,7.02-8.37,9.12-10,.17-.13.58-.53.75-.38,1.15,2.38,2.19,4.83,3.5,7.12Z"/>
        <path class="cls-18" d="M197.75,128.25l-9.5,1c-2.99.07-6.04-.29-9,.38-.83,1.15,6.48,16.26,7.75,18.38l-2.5-.25c-1.31-2.29-2.35-4.75-3.5-7.12-.17-.16-.58.25-.75.38l-.25-.25c1.09-1.87.12-2.05-.25-4.12l-.38-.38c-.57.73-1.04,1.53-1.62,2.25l-.25-.5c.3-.45,1.72-2.18,1.75-2.38.16-1.02-1.95-6.37-1.5-7,1.47,0,3.71-.79,5-.88.03,0-.08.51.12.5,5.01-.29,9.87-.33,14.88,0Z"/>
        <path class="cls-12" d="M250.5,185c-.39,2.46.42,5.17-1.25,7.25-.08,0-.17,0-.25,0v-7c.18,0,.91-.24,1.5-.25Z"/>
        <path class="cls-34" d="M91.25,199.75l.75,2c-6.29,2.48-11.82,5.67-17,10-7.34,6.14-14.13,15.49-17.75,24.38-.41,1.02-2.54,6.85-1.88,7.12,3.03.37,6.07.22,9.12.25-.54,4.82,3.97,1.81,7,3-2.15.12-4.48.29-6.62.25-2.02-.03-9.31-1.27-10.5-1-.06.01-.5.37-.25.5,5.01.37,10.08,1.09,15.12,1l-.62,2.25h6.12c-.91.1-1.84.19-2.75.25-6.97.47-14.5.37-21.25-1.5,2.01-13.77,9.39-27.04,19.75-36.25,5.74-5.1,13.53-9.61,20.75-12.25Z"/>
        <path class="cls-34" d="M241.25,182.5c-.62,1.43.32.54.5,1.5-9.6-.81-22.22-4.03-30.38-9.25-1.33-.85-3.44-1.89-3.38-3.5,9.93,6.45,21.39,10.37,33.25,11.25Z"/>
        <path class="cls-34" d="M55.75,146c13.71,25.19,36.04,38.59,65,39l.25,7v.25c-29.44-1.15-57.02,11.21-70.5,38.38-1.73,3.5-2.82,8.05-4.75,11.25-.04.06.8.73-.5.88-.13-.43.36-.55.12-.75-.05-.04-.9,0-1.25-.25-1.27-.94-2.61-1.81-3.88-2.75l.25-85.5c4.37-4.08,8.55-8.39,12.38-13,.84,1.9,1.89,3.68,2.88,5.5Z"/>
        <path class="cls-3" d="M40.25,239c-5.74-4.28-25.52-20.35-26.75-26.88-1.69-8.99,1.27-23.45,0-33,6.61-8.53,15.15-15.12,23-22.38,1.24-1.15,2.78-2.11,4-3.25l-.25,85.5Z"/>
        <path class="cls-34" d="M130,207c-5.57,12.9-11.58,22.3-23.25,30.5l-.25-2.25c9.44-6.93,16.69-17.58,21.25-28.25l1.25.38-.12-1.62,1.12,1.25Z"/>
        <path class="cls-12" d="M122.5,185c-.59,1.84.77,6.25-1.5,7l-.25-7c.58,0,1.17,0,1.75,0Z"/>
        <g>
          <path class="cls-3" d="M256,77.25c-7.28,18.53-21.64,33.27-41,38.88l6.12-1.62c3.92-2.08,8.19-3.74,11.88-6.25l.75,2c-9.21,6.13-19.94,10.08-31,11.25h-6.38l.38-2.5c2.77-.05,6.53.36,8.88-1-4.78.48-9.57.62-14.38.5,2.49-.22.89-1.72,2.5-3,4.23,0,7.81-.19,12-.75.45.96,2.06.38,3,.25,3.63-.52,6.89-1.92,10.25-3.25,18.78-7.44,31.13-22.33,37-41.5v7ZM213.87,116.25c-.37-.02-6.88,1.36-7.25,1.5s-.75-.25-.62.62c.23.37,7.61-1.45,8.5-1.75.06-.51-.28-.35-.62-.38Z"/>
          <path class="cls-3" d="M256,65.25v2.5c-13.51-1.74-27.67-.63-40.25,4.75-1.06-1.15-2.98.05-1.75-2,13.85-5.98,27-6.99,42-5.25Z"/>
          <path class="cls-34" d="M256,84.25c-5.53,10.51-12.27,19.37-22.25,26l-.75-2c10.34-7.04,17.84-18.05,23-29.25v5.25Z"/>
          <path class="cls-33" d="M256,70.25c-5.87,19.17-18.22,34.06-37,41.5l13.62-8c10.69-8.19,18.72-19.78,22.12-32.88-15.95-2.74-32.16.46-45.88,8.88l-5.88,4c5.14-4.3,10.76-7.53,17-10,9.42-3.72,18.46-5.01,28.62-4.75,2.14.05,5.87,1.31,7.38-.25v1.5Z"/>
          <path class="cls-3" d="M256,68.5v.25c-1.51,1.56-5.23.3-7.38.25-10.17-.26-19.21,1.03-28.62,4.75,1.1-1.44-.5-.81-.25-2.25,11.6-4.12,24.11-4.82,36.25-3Z"/>
          <path class="cls-2" d="M256,67.75v.75c-12.14-1.82-24.65-1.12-36.25,3-7.22,2.56-15.52,7.41-21.25,12.5l-.25-.25c5.21-4.54,11.11-8.52,17.5-11.25,12.58-5.38,26.74-6.49,40.25-4.75Z"/>
          <path class="cls-2" d="M256,79c-5.16,11.2-12.66,22.21-23,29.25-3.68,2.51-7.95,4.17-11.88,6.25l-6.12,1.62c19.36-5.6,33.72-20.35,41-38.88v1.75Z"/>
          <path class="cls-3" d="M38.25,26.75c-4.36,4.06-9.31,7.63-13.62,11.75-5.59,5.34-10.62,11.23-15.75,17-.55,0-1.37-3.35-1.62-4,.7.13.78-.05,1.25-.38,4.57-3.14,12.06-12.1,16.62-16.38,9.07-8.5,19.04-16.02,26.38-26.25.15.59,1.27,2.96,1.25,3.12-.2,1.62-12.47,13.24-14.5,15.12Z"/>
          <path class="cls-21" d="M219,111.75c-3.36,1.33-6.62,2.73-10.25,3.25.52-1.52-2.19-.36-3-.25-4.19.56-7.77.75-12,.75-3.47,0-6.9-.31-10.38-.25-.75-.28,1.54-6.32,1.88-7.12,3.67-8.92,10.37-18.21,17.75-24.38l5.88-4c13.72-8.42,29.93-11.62,45.88-8.88-3.4,13.1-11.43,24.69-22.12,32.88l-13.62,8Z"/>
          <path class="cls-34" d="M220,73.75c-6.24,2.47-11.86,5.7-17,10-7.38,6.17-14.08,15.46-17.75,24.38-.33.81-2.63,6.85-1.88,7.12,3.47-.06,6.91.25,10.38.25-1.61,1.28-.01,2.78-2.5,3-1.62-.04-8.14-.92-8.88-.75-.06.01-.5.37-.25.5l7,.75c2.56.1,5.08.05,7.62,0l-.38,2.5h6.38c-.82.09-1.68.19-2.5.25-5.54.38-13.35.44-18.75-.75-.87-.19-1.75-.33-2.62-.5,1.42-13.56,9.45-27.46,19.62-36.5,5.73-5.09,14.03-9.94,21.25-12.5-.25,1.44,1.35.81.25,2.25Z"/>
          <path class="cls-2" d="M191.25,118.5c4.8.12,9.6-.02,14.38-.5-2.34,1.36-6.11.95-8.88,1-2.55.05-5.07.1-7.62,0l-7-.75c-.25-.13.19-.49.25-.5.73-.17,7.25.71,8.88.75Z"/>
          <path class="cls-34" d="M213.87,116.25c.35.02.68-.14.62.38-.89.3-8.27,2.12-8.5,1.75-.13-.88.27-.49.62-.62s6.88-1.52,7.25-1.5Z"/>
          <path class="cls-34" d="M208.75,115c-.94.13-2.55.71-3-.25.81-.11,3.52-1.27,3,.25Z"/>
          <path class="cls-34" d="M214,70.5c-1.23,2.05.69.85,1.75,2-6.39,2.73-12.29,6.71-17.5,11.25-10.92,9.5-18.64,22.47-21.75,36.62.3.84,3.87.61,4.75.88,2.85.85.99,3.96,1.5,6.5-1.29.09-3.53.88-5,.88-.45.63,1.66,5.98,1.5,7-.03.2-1.45,1.93-1.75,2.38-1.93,2.91-5.24,6.52-8,8.62l.25-30.75c.71-.75,2.7,2.21,3.5,1.25-5.32-3.22-10.46-6.67-15.25-10.62l1.75-1.25c4.54,3.75,9.9,6.72,14.12,10.75,4-12.98,11.03-25.09,21.38-34,5.56-4.79,12.02-8.6,18.75-11.5Z"/>
          <path class="cls-18" d="M198.25,83.75l.25.25c-10.18,9.04-18.21,22.94-19.62,36.5.88.17,1.75.31,2.62.5l-.25.25c-.88-.26-4.45-.03-4.75-.88,3.11-14.16,10.83-27.12,21.75-36.62Z"/>
          <g>
            <path class="cls-34" d="M200.25,0h55.75v36c-6.26-9.51-13.68-18.31-23.38-24.5-2.39-1.53-6.49-3.88-9.12-4.75-.17-.05-.19-.19-.75-.25.01-.39-.34-.19-.5-.25-1.39-.52-2.51-1.12-4-1.5-.83-.64-2.08-.7-3-1-.03,0-.1-.12-.5-.25-2.35-.76-5.06-1.69-7.5-2-.16-.02-.34.02-.5,0-1.86-.81-5.21-.06-6.5-1.5Z"/>
            <path class="cls-3" d="M206.75,1.5c.16.02.34-.02.5,0-.41.42.06.65.38.75,1.89.58,5.09.99,7.12,1.25.4.13.47.24.5.25.17,1.12,2.6.9,3,1,1.49.38,2.61.98,4,1.5-.02.89.23.22.5.25.56.06.58.2.75.25.68,1.31,2.81,1.54,4.12,2.25,5.14,2.75,9.89,6.52,14.12,10.5l-.25,3c-3.22-3.2-7.53-6.84-11.38-9.25-2.85-1.79-6.71-3.85-9.88-4.62,15.94,7.12,28.18,19.73,35.75,35.38v6.25c-6.48-16.76-17.68-29.9-33.75-38-4.84-2.44-7.98-3.84-13.25-5l-1.25-1.88c.24-1.22,8.32,2.23,9.5,2-7.3-3.45-14.61-4.19-22.5-3.88-1.42-2.83,5.36-2.28,7.12-2.25.88.01,4.57.22,4.88.25Z"/>
            <path class="cls-34" d="M200.25,0c1.29,1.44,4.64.69,6.5,1.5-.3-.03-3.99-.24-4.88-.25-1.77-.03-8.55-.58-7.12,2.25-.68.03-1.39.22-2,.25-3.08.17-6.17.19-9.25.38,4.06,11.48,10.75,22.47,19.88,30.62,3.1,2.77,8.96,7.21,12.62,9-1.15.55.48,2.04,0,3.25-6.91-3.48-13.39-8.17-18.75-13.75-4.94-5.14-9.22-11.44-12.5-17.75-2.3-4.42-4.49-8.96-5.5-13.88L197.5,0h2.75Z"/>
            <path class="cls-34" d="M181.25,0l-3.5.62c.35,2.4.93,4.78,1.5,7.12l-9.62,11L169.5,0h11.75Z"/>
            <path class="cls-3" d="M217.75,44c-.66.26.15.63.38.75,11.57,6.02,24.93,7.7,37.88,7.25v2c-14.14,1.13-27.34-.62-40-7,.48-1.21-1.15-2.7,0-3.25.08.04.92-.14,1.75.25Z"/>
            <path class="cls-33" d="M256,50.25v1.75c-12.94.45-26.31-1.23-37.88-7.25-.23-.12-1.03-.49-.38-.75,12.36,5.71,23.17,7.93,37,6.12-4.93-16.18-17.29-29.35-32.12-37.12-.23-.12-1.03-.49-.38-.75,16.07,8.1,27.27,21.24,33.75,38Z"/>
            <path class="cls-3" d="M256,37v5.5c-4.09-7.24-8.57-14.11-14.5-20l.25-3c5.54,5.21,10.17,11.08,14.25,17.5Z"/>
            <path class="cls-18" d="M197.5,0l-18.25,1.62c1.01,4.91,3.2,9.46,5.5,13.88-1.72.29-1.22-2.21-3-1.25-.32-.57-.57-1.18-.88-1.75-2.51,3.14-5.26,5.94-8.12,8.75l-.25-.25c1.03-1.03,8.17-8.76,8.25-9.38.05-.42-1.4-2.96-1.5-3.38-.03-.13.11-.06,0-.5-.57-2.35-1.15-4.73-1.5-7.12L181.25,0h16.25Z"/>
            <path class="cls-2" d="M197.25,33.25c5.36,5.58,11.84,10.27,18.75,13.75,12.66,6.38,25.86,8.13,40,7v.5c-4.85.26-9.65.34-14.5,0-9.97-.7-19.63-3.45-28.38-8.25-3.21-1.76-6.73-5.02-9.5-6.5-.18-.1-2.99-1.03-3.12-.5-2.56-2.2-3.96-3.49-6.25-6,1.11-.32,2.05,1.42,3,0Z"/>
            <path class="cls-3" d="M256,56.75v7.75c-2.26.16-4.5-.14-6.75-.25,1.99-1.83.58-4.96,1.25-7.25,1.84-.03,3.65-.36,5.5-.25Z"/>
            <path class="cls-33" d="M249,64.25c.08,0,.17,0,.25,0,2.25.11,4.49.41,6.75.25v.75c-15-1.74-28.15-.73-42,5.25-6.73,2.9-13.19,6.71-18.75,11.5l-.25-.25c16-13.74,33.01-18.47,54-17.5Z"/>
            <path class="cls-2" d="M241.5,22.5c5.93,5.89,10.41,12.76,14.5,20v1.5c-7.57-15.64-19.81-28.26-35.75-35.38,3.17.77,7.02,2.84,9.88,4.62,3.85,2.41,8.16,6.05,11.38,9.25Z"/>
            <path class="cls-2" d="M241.5,56c4.79.4,9.71.42,14.5,0v.75c-1.85-.11-3.66.22-5.5.25-.59,0-1.31.25-1.5.25-14.19-.19-28.89-4.33-40.75-12-.11-.94.92-.13,1.12,0,9.7,6.3,20.55,9.79,32.12,10.75Z"/>
            <path class="cls-3" d="M256,54.5v1.5c-4.79.42-9.71.4-14.5,0,.14-.67-.49-.3-.5-.88,0-.15.7-.03.5-.62,4.85.34,9.65.26,14.5,0Z"/>
            <path class="cls-2" d="M256,36v1c-4.08-6.42-8.71-12.29-14.25-17.5-4.23-3.98-8.99-7.75-14.12-10.5-1.32-.71-3.44-.94-4.12-2.25,2.64.87,6.73,3.22,9.12,4.75,9.7,6.19,17.12,14.99,23.38,24.5Z"/>
            <path class="cls-3" d="M172.5,21c-6.21,6.22-13.51,11.45-19.88,17.5-5.61,5.34-10.6,11.24-15.75,17-.74.01-1.15-3.18-1.38-3.75,14.17-14.91,31.54-26.83,43.75-43.5.1.42,1.55,2.96,1.5,3.38-.08.62-7.22,8.34-8.25,9.38Z"/>
            <path class="cls-34" d="M214.75,3.5c-2.04-.26-5.23-.67-7.12-1.25-.32-.1-.79-.33-.38-.75,2.44.31,5.15,1.24,7.5,2Z"/>
            <path class="cls-34" d="M218.25,4.75c-.4-.1-2.83.12-3-1,.92.3,2.17.36,3,1Z"/>
            <path class="cls-34" d="M222.75,6.5c-.27-.03-.52.64-.5-.25.16.06.51-.14.5.25Z"/>
            <path class="cls-22" d="M192.75,3.75c-.11.75.67.49,1.12.5,2.89.08,5.4.09,8.25.75l-.62.88c.15.35,6.52,1.16,7.5,1.38,5.27,1.16,8.41,2.56,13.25,5-.66.26.15.63.38.75,14.83,7.78,27.19,20.94,32.12,37.12-13.83,1.8-24.64-.41-37-6.12-.83-.39-1.67-.21-1.75-.25-3.66-1.79-9.53-6.23-12.62-9-9.12-8.15-15.81-19.14-19.88-30.62,3.08-.18,6.17-.2,9.25-.38Z"/>
            <path class="cls-34" d="M209,7.25c-.98-.21-7.35-1.02-7.5-1.38l.62-.88c-2.85-.66-5.36-.67-8.25-.75-.46-.01-1.23.25-1.12-.5.61-.03,1.32-.22,2-.25,7.89-.32,15.2.42,22.5,3.88-1.18.23-9.26-3.22-9.5-2l1.25,1.88Z"/>
            <path class="cls-33" d="M184.75,15.5c3.28,6.31,7.56,12.61,12.5,17.75-.95,1.42-1.89-.32-3,0-6.03-6.62-8.25-11.36-12.5-19,1.78-.96,1.28,1.54,3,1.25Z"/>
            <path class="cls-23" d="M181.75,14.25c4.25,7.64,6.47,12.38,12.5,19,2.29,2.51,3.69,3.8,6.25,6s4.75,4.06,7.75,6c11.86,7.67,26.56,11.81,40.75,12v7c-20.99-.97-38,3.76-54,17.5-6.7,5.75-12.57,12.94-16.5,20.88-1.94,3.93-3,8.29-5.12,12.12-9.11-6.88-18.78-13.52-26.12-22.38-.96-1.16-4.83-5.98-5.25-7-.91-2.24-.88-28.75-.5-32.62.07-.73-.14-1.4.25-2.12,9.12-11.04,20.82-19.41,31-29.38,2.87-2.81,5.61-5.61,8.12-8.75.31.57.56,1.18.88,1.75Z"/>
            <path class="cls-34" d="M241.5,54.5c.2.6-.5.48-.5.62.01.58.64.2.5.88-11.58-.96-22.43-4.45-32.12-10.75-.2-.13-1.23-.94-1.12,0-3-1.94-5.07-3.7-7.75-6,.13-.53,2.94.4,3.12.5,2.77,1.48,6.29,4.74,9.5,6.5,8.74,4.8,18.4,7.55,28.38,8.25Z"/>
            <path class="cls-12" d="M250.5,57c-.67,2.29.74,5.42-1.25,7.25-.08,0-.17,0-.25,0v-7c.19,0,.91-.24,1.5-.25Z"/>
            <path class="cls-33" d="M141.5,52.75c-.38,3.87-.41,30.38.5,32.62.42,1.02,4.29,5.84,5.25,7,7.35,8.86,17.02,15.49,26.12,22.38,2.13-3.84,3.18-8.2,5.12-12.12,3.93-7.93,9.8-15.12,16.5-20.88l.25.25c-10.34,8.91-17.38,21.02-21.38,34-4.22-4.03-9.58-7-14.12-10.75-8.57-7.08-12.97-12.63-19-21.75,0-10.17.85-20.6.25-30.75h.5Z"/>
            <path class="cls-3" d="M140.75,83.5c6.03,9.12,10.43,14.67,19,21.75l-1.75,1.25c-8.54-7.05-16.55-16.4-21.5-26.38-.53-1.06-1.44-3.03-1.25-4.12,2.48,2.32,3.45,4.4,5.5,7.5Z"/>
          </g>
          <g>
            <path class="cls-25" d="M169.5,0l.12,18.75,9.62-11c.11.44-.03.37,0,.5-12.21,16.67-29.58,28.59-43.75,43.5-7.5-19.44-20.25-36.02-39.5-44.75-1.85-.84-3.58-1.57-5.5-2.25-1.06-.38-2.11-.87-3.25-1-.58-.25-1.15-.55-1.75-.75-.25-.08-.51-.18-.75-.25-2.22-.67-4.94-1.1-7.25-1.5-1.53-.26-4.43-.2-5.25-1.25h97.25Z"/>
            <path class="cls-3" d="M29.5,103.25v2.75c-8.38-7.01-14.26-14.12-19.75-23.62-1.84-3.18-2.22-6.87-5.25-8.88L0,83.25v-5.25c.82-2.39,4.61-10.33,4.5-12.38-.02-.43.03-.6-.38-.88H0v-8l4.5-.62L0,43.25v-5.5c3.97,5.6,5.85,12.28,8.25,18.62l5-4.5-.25,31.25c-1.02-.94-1.56-2.7-2.25-3.75-.04-.07-1.16-1.68-1.25-1,5.1,9.81,11.67,17.67,20,24.88Z"/>
            <path class="cls-34" d="M72.25,0c.82,1.05,3.72.99,5.25,1.25-.46.72-1.06.3-1.75.25-1.17-.08-8.51-.75-8.88-.5-.41.28-.11,2.34.25,2.5,1.07.48,5.92-.51,6.75-.25.25.08,0,.66.25.75,1.29.45,3.12.42,3.38,1.75-6.5-2.29-15.2-1.45-21.88-1.75,4.7,14.71,14.56,28.44,27.88,36.75.34.53,2.34,1.65,3,2-.44,1.02-2.07.43-2.25,2.25-9.77-5.72-19.4-15.28-25.25-25-1.27-2.12-8.6-17.2-7.75-18.38L70.25,0h2Z"/>
            <path class="cls-33" d="M38.5,27c-8.51,7.85-17.84,14.89-25,24.12,1.19,9.7-1.58,23.53,0,32.75,1.2,6.98,20.97,22.76,27,27.12,1.57,1.14,3.31,2.71,4.88,3.75.31.21.36-.26.38-.25.47.26.04.68.5.75-.11.25-.26.5-.38.75-5.19-4.59-11.14-8.22-16.38-12.75-8.33-7.2-14.9-15.07-20-24.88.09-.68,1.21.93,1.25,1,.69,1.05,1.23,2.81,2.25,3.75l.25-31.25-5,4.5C5.85,50.03,3.97,43.35,0,37.75v-1c3.25,4.44,5.27,9.65,7.25,14.75.25.65,1.08,4.01,1.62,4,5.13-5.77,10.16-11.66,15.75-17,4.31-4.12,9.27-7.69,13.62-11.75l.25.25Z"/>
            <path class="cls-18" d="M70.25,0l-19,1.62c-.85,1.18,6.48,16.26,7.75,18.38-.28,1.1-1.03.7-2,.75-.55-.94-3.91-8.32-4.38-8.25-3.58,4.86-7.97,9.14-12.38,13.25-.27.25-1.29.83-1.75,1.25l-.25-.25c2.03-1.89,14.3-13.5,14.5-15.12.02-.17-1.1-2.54-1.25-3.12-.12-.48-.24-.71-.25-.75-.57-2.35-1.15-4.73-1.5-7.12L53.25,0h17Z"/>
            <path class="cls-33" d="M135.5,51.75c.22.57.64,3.76,1.38,3.75,5.15-5.76,10.14-11.66,15.75-17,6.36-6.05,13.66-11.28,19.88-17.5l.25.25c-10.18,9.97-21.88,18.34-31,29.38-.39.72-.18,1.4-.25,2.12h-.5c-.02-.42.41-1.04-.12-1l-4.62,4.62c-5.73-18.88-17.5-35.67-34.38-46.12l-5.88-3.25c19.25,8.73,32,25.31,39.5,44.75Z"/>
            <path class="cls-34" d="M90.5,4.75c-1.01.69-2.82-.82-3.25-1,1.14.13,2.19.62,3.25,1Z"/>
            <path class="cls-34" d="M85.5,3c-.24.82-1.26.53-.75-.25.24.07.5.17.75.25Z"/>
            <path class="cls-29" d="M78.75,6.75c.36.02,2.14.4,2.75.5,4.02.69,7.63,2.53,11.25,4.25l11.38,7.25c10.19,8.11,18.88,18.75,22.62,31.38-13.73,1.77-24.94-.43-37.25-6.12-1.03-.48-1.8-.62-3-1.25-.66-.35-2.66-1.47-3-2l-6.75-32.88.38-1.12c.54.02,1.09-.03,1.62,0Z"/>
            <path class="cls-30" d="M77.5,5.75c.52.18,1.32.26,1.25,1-.54-.03-1.08.02-1.62,0l-.38,1.12,6.75,32.88c-13.31-8.31-23.17-22.04-27.88-36.75,6.67.3,15.38-.54,21.88,1.75Z"/>
            <path class="cls-33" d="M84.25,45c13.61,7.97,28.4,10.34,44.12,9-.8.67-3.18.69-4.25.75-17.72.93-30.34-3.28-45.12-12.25-.96-.58-4.15-3.87-4.75-1.75-7.36-5.98-12.44-11.77-17.25-20,.97-.05,1.72.35,2-.75,5.85,9.72,15.48,19.28,25.25,25Z"/>
            <path class="cls-34" d="M75.75,1.5c.15.74-.89,1-.5,1.88.31.69,12.9,2.41,14.62,3.88.44.45-.09.51-.5.5-1.04-.03-8.01-3.24-8.62-2.38l.75,1.88c-.61-.1-2.39-.48-2.75-.5.07-.74-.73-.82-1.25-1-.26-1.33-2.09-1.3-3.38-1.75-.25-.09,0-.67-.25-.75-.83-.26-5.68.73-6.75.25-.36-.16-.66-2.22-.25-2.5.36-.25,7.71.42,8.88.5Z"/>
            <path class="cls-34" d="M57,20.75c4.81,8.23,9.89,14.02,17.25,20,1.85,1.5,3.54,3.24,5.75,4.25.08.08.14.15.25.25,8.94,7.68,28.97,11.59,40.5,11.75l.25,7v.25c-12.82-.5-23.26.4-35.12,5.5-19.29,8.3-33.98,24.67-40.12,44.75-.02-.01-.07.46-.38.25-1.56-1.04-3.3-2.61-4.88-3.75l-.25-85.25c4.41-4.11,8.79-8.39,12.38-13.25.46-.07,3.82,7.31,4.38,8.25Z"/>
            <path class="cls-3" d="M40.25,25.75l.25,85.25c-6.03-4.36-25.8-20.15-27-27.12-1.58-9.22,1.19-23.05,0-32.75,7.16-9.23,16.49-16.27,25-24.12.46-.42,1.48-1,1.75-1.25Z"/>
            <path class="cls-33" d="M122.5,57c-.58,0-1.17,0-1.75,0-11.53-.16-31.56-4.07-40.5-11.75.08-1.01.39-.34.75-.12,8.4,5.03,16.33,8.53,26.12,10.12,7.82,1.28,16.9,1.7,24.62.12-5.12-21.05-20.92-38.91-40.75-47.25,13.44,4.37,25.48,15.52,33,27.5,3.85,6.14,7.5,13.55,8.5,20.75-3.32.23-6.67.6-10,.62Z"/>
            <path class="cls-33" d="M89.5,44c12.31,5.7,23.52,7.89,37.25,6.12-3.75-12.62-12.44-23.26-22.62-31.38l-11.38-7.25c16.63,7.91,29.98,22.3,35.25,40.12-13.07,1.19-27.23-.88-38.5-7.62Z"/>
            <path class="cls-12" d="M122.5,57c-.5,2.05.18,4.33-.5,6.38-.25.76.09.69-1,.62l-.25-7c.58,0,1.17,0,1.75,0Z"/>
            <path class="cls-2" d="M79,42.5c-1.12.73.39,1.93,1,2.5-2.21-1.01-3.9-2.75-5.75-4.25.6-2.12,3.79,1.17,4.75,1.75Z"/>
          </g>
        </g>
        <path class="cls-31" d="M84.75,242c-6.45,1.08-13.59,1.56-20.25,1.5-3.06-.03-6.09.12-9.12-.25-.67-.28,1.46-6.11,1.88-7.12,3.62-8.89,10.41-18.24,17.75-24.38l8.88-5.75c13.02-7.17,28.18-9.57,42.88-7.12-4.58,17.42-17.59,32.69-34.12,39.88-2.19.95-4.85,1.45-7,2.25-.46.17-1.07.26-.88,1Z"/>
        <path class="cls-33" d="M84.75,242c-.19-.74.41-.83.88-1,2.15-.8,4.81-1.3,7-2.25,16.53-7.19,29.55-22.46,34.12-39.88-14.69-2.44-29.86-.05-42.88,7.12l-8.88,5.75c5.18-4.33,10.71-7.52,17-10,11.37-4.47,23.88-5.86,36-3.88-5.02,17.6-17.23,33.35-34.12,40.88-2.05.91-7.08,2.91-9.12,3.25Z"/>
        <path class="cls-2" d="M69.25,247.25c-5.05.09-10.11-.63-15.12-1-.25-.13.19-.49.25-.5,1.19-.27,8.48.97,10.5,1,2.14.04,4.47-.13,6.62-.25,4.75-.26,9.59-.86,14.12-2.25.21.1.2.59,0,.75-.28.22-6.18,1.38-7,1.5-2.73.41-6.61.7-9.38.75Z"/>
        <path class="cls-32" d="M191.75,131.75l10.38,1.25-.5,1c1.01.02,2.3.6,3.12.75l6,33.5c-13.11-8.94-22.07-21.08-27.25-36.12,2.74-.21,5.51-.21,8.25-.38Z"/>
        <g>
          <path class="cls-34" d="M87.75,69.75l-2,1.38,1.75,1.62c-9.38,4.07-17.4,9.96-24,17.75-7.23,8.53-12.69,18.87-15,29.88.24.73,4.77.82,5.75,1.12,1.09,1.39.23,4.34.5,6.25-1.29.09-3.53.89-5,.88-.21.3,1.28,6.25,1.5,7.12l-9.75,10.62.38-30.62c.54-.44,2.75,2.35,3.38,1.38-5.58-3.3-10.79-6.98-15.75-11.12v-2.75c5.24,4.53,11.19,8.16,16.38,12.75.12-.25.27-.5.38-.75,9.85-22.79,17.04-35.68,41.5-45.5Z"/>
          <path class="cls-18" d="M70.25,128.25s-.19.5-.38.5c-6.53.09-12.23.08-18.62.88,1.43,5.93,4.18,12.11,7.25,17.38-1.19.14-1.36-1.49-2.75-1-.99-1.82-2.03-3.6-2.88-5.5-3.82,4.61-8.01,8.92-12.38,13-1.22,1.14-2.76,2.1-4,3.25l-.25-.25c2.34-2.18,16.26-14.95,16.5-16.88.02-.18-1.11-2.58-1.25-3.12-.13-.51-.2-.55-.25-.75-.22-.87-1.71-6.83-1.5-7.12,1.47.01,3.71-.79,5-.88.03,0-.08.51.12.5,5.13-.29,10.25-.44,15.38,0Z"/>
          <path class="cls-3" d="M84.75,2.75c-.51.78.51,1.07.75.25.6.2,1.17.5,1.75.75.43.18,2.24,1.69,3.25,1,1.92.68,3.65,1.41,5.5,2.25l5.88,3.25c16.88,10.45,28.65,27.24,34.38,46.12l4.62-4.62c.53-.04.1.58.12,1,.6,10.15-.24,20.58-.25,30.75-2.05-3.1-3.02-5.18-5.5-7.5-.61-.57-1.99-2.11-2.75-2.25l-.5-.12c-8.09,27.32-31.21,46.14-59.75,48.12-5.28.37-12.82.44-18-.5-1.1-.2-2.23-.68-3.38-.75.4-6.44,3.11-13.5,6.12-19.25l.5,1.38c1.29-2.79,3.01-5.21,5.12-7.38,1.1.67-1.48,2.86.38,2.25-2.01,3.14-4.36,7.19-5.75,10.62-.33.82-2.66,6.83-1.88,7.12,7.78.27,15.53.58,23.25-.5.45-.06,2.85-1.05,3-1,.48.17.31.96.5,1,.88.21,6.21-2,7.38-2.5,19.49-6.41,33.34-23.73,38.75-43.12l-.38-.38c-.3,1.15-2.39.78-3.5.75-15.64-.35-26.05.01-40.12,7.75l-1.75-1.5c11.39-6.11,23.38-8.64,36.38-8.25,1.48.04,8.29,1.23,9,1,.41-.13.41-.55,0-.75-.44-.22-6.08-.7-7-.75-11.43-.6-22.91,1.21-33.38,5.75l-1.75-1.62,2-1.38c14.34-5.76,28.51-6.32,43.75-3.88-5.43,21.89-17.45,38.81-38.25,48.12-.23.09-.5.16-.75.25-8.13,2.83-16.71,4.47-25.38,4.5-4.34.02-8.78-.99-13.12-.62,10.49,1.48,21.32,1.57,31.62-1.12,2.37-.62,4.98-1.95,6.88-2.75.08-.03.2,0,.75-.25,21.15-7.71,33.96-27.65,39.25-48.88-.21-.54-10.21-.82-11.5-.88v-.25c1.09.06.75.14,1-.62.68-2.05,0-4.32.5-6.38,3.33-.03,6.68-.39,10-.62-1-7.2-4.65-14.61-8.5-20.75-7.52-11.98-19.56-23.13-33-27.5,19.83,8.34,35.63,26.2,40.75,47.25-7.73,1.58-16.81,1.15-24.62-.12-9.79-1.6-17.73-5.09-26.12-10.12-.36-.21-.67-.89-.75.12-.11-.1-.17-.17-.25-.25-.61-.57-2.12-1.77-1-2.5,14.78,8.97,27.41,13.18,45.12,12.25,1.07-.06,3.45-.08,4.25-.75-15.72,1.34-30.52-1.03-44.12-9,.18-1.82,1.81-1.23,2.25-2.25,1.2.63,1.97.77,3,1.25,11.27,6.75,25.43,8.82,38.5,7.62-5.27-17.82-18.62-32.21-35.25-40.12-3.62-1.72-7.23-3.56-11.25-4.25l-.75-1.88c.62-.87,7.59,2.35,8.62,2.38.41.01.94-.05.5-.5-1.73-1.46-14.32-3.18-14.62-3.88-.39-.87.65-1.13.5-1.88.69.05,1.29.47,1.75-.25,2.31.4,5.03.83,7.25,1.5Z"/>
          <path class="cls-34" d="M180,140.75c-3.51,6.01-15.52,15.12-21,20.25l-.62-1.75c-.61-.23-.85,1.14-1.5,1.5-.7.39-1.08-.03-1.12,0,7.97-7.13,15.21-13.96,22-22.25.59-.72,1.06-1.52,1.62-2.25l.38.38c.37,2.07,1.34,2.26.25,4.12Z"/>
          <path class="cls-3" d="M159,161c-6.54,6.12-11.66,11.17-17.75,17.75-1.46,1.58-3.04,3.05-4.38,4.75-.74.01-1.15-3.18-1.38-3.75,6.86-4.9,13.29-14.66,20.25-19,.05-.03.42.39,1.12,0,.65-.36.89-1.73,1.5-1.5l.62,1.75Z"/>
          <path class="cls-33" d="M135.5,179.75c.22.57.64,3.76,1.38,3.75,1.34-1.7,2.91-3.17,4.38-4.75l-.25,1-4.62,4.75c-1.31-3.13-2.28-6.38-3.62-9.5-4.67-10.85-10.56-19.69-19.25-27.75-2.93-2.72-5.97-5.34-9.38-7.5-3.73-2.37-7.87-3.97-11.62-6.25,20.37,6.75,35.52,26.96,43,46.25Z"/>
          <path class="cls-33" d="M121,64.25c1.29.05,11.29.34,11.5.88-5.29,21.22-18.1,41.16-39.25,48.88,20.8-9.32,32.82-26.23,38.25-48.12-15.24-2.44-29.41-1.89-43.75,3.88-24.46,9.82-31.65,22.71-41.5,45.5-.46-.07-.03-.49-.5-.75,6.15-20.08,20.83-36.45,40.12-44.75,11.86-5.1,22.3-6,35.12-5.5Z"/>
          <path class="cls-24" d="M72.25,121.75v.5c0,1.89.21,3.9-.25,5.75-.78-.09-1.16.2-1.75.25-5.13-.44-10.24-.29-15.38,0-.2.01-.1-.5-.12-.5-.27-1.91.59-4.86-.5-6.25v-.25c5.18.94,12.72.87,18,.5Z"/>
          <path class="cls-18" d="M64,90.75c-2.55,3.09-5.14,6.95-7,10.5-3.01,5.75-5.73,12.81-6.12,19.25,1.15.07,2.28.55,3.38.75v.25c-.98-.31-5.51-.4-5.75-1.12,2.31-11,7.77-21.34,15-29.88l.5.25Z"/>
          <path class="cls-33" d="M82.5,75.75c-7.04,3.78-13.4,8.81-18.5,15l-.5-.25c6.6-7.79,14.62-13.68,24-17.75,10.47-4.54,21.95-6.35,33.38-5.75.92.05,6.56.53,7,.75.41.2.41.62,0,.75-.71.23-7.52-.96-9-1-12.99-.39-24.98,2.14-36.38,8.25Z"/>
          <path class="cls-34" d="M72,128c1.11.14,4.54,1.2,6.25,1.5-.39.72-1.79-.04-1.88,0-.7.29.03,1.95.5,2.25.03.02.47-.52.5-.5,1.1.53.94.57,2.38,1,3.16.95,6.42,1.64,9.5,2.88l-8.12-1.88c-.71,1.41.72.9.62,2-1.63-.37-8.63-.88-9.5-1.62-.21-.18.5-.5.12-.88-.69-.69-14.66-.86-16.75-.75-.66.45,4.67,11.34,5.38,12.62,6.34,11.46,16.17,21.29,27.75,27.38,2.5,1.31,5.36,2.79,8,3.75-.82.93-1.03,2.21-2.25,2.25-5.02-1.83-11.7-5.34-16-8.5-7.28-5.34-15.45-14.71-20-22.5-3.07-5.26-5.82-11.45-7.25-17.38,6.4-.8,12.1-.78,18.62-.88.18,0,.34-.5.38-.5.59-.05.97-.34,1.75-.25Z"/>
          <path class="cls-33" d="M111.25,148.25c8.99,8.1,15.47,18.86,20,30-.03.97,1.8,5.77,1.12,6.25-3.3.02-6.58.47-9.88.5-.58,0-1.17,0-1.75,0-28.96-.41-51.29-13.81-65-39,1.39-.49,1.56,1.14,2.75,1,4.55,7.79,12.72,17.16,20,22.5-.94-.07,0,.66.12.75,1.8,1.24,4.48,2.96,6.38,4-.96,1.56,3.37,3.16,4.62,3.75,12.57,5.87,28.09,7.18,41.75,5.75.41-.26.18-1.19.12-1.62-.49-4.09-4.59-12.53-6.75-16.25-7.36-12.69-18.72-22.85-32-29,3.26.79,7.23,2.99,10.12,4.88,2.51,1.63,6.14,4.49,8.38,6.5Z"/>
          <path class="cls-34" d="M132.75,175c.54,2.8-1.39.14-1.5,3.25-4.53-11.14-11.01-21.9-20-30l2.62.25-.38-1.25c8.69,8.06,14.58,16.9,19.25,27.75Z"/>
          <path class="cls-27" d="M135.25,76c-.19,1.09.72,3.07,1.25,4.12,4.95,9.97,12.96,19.33,21.5,26.38,4.79,3.95,9.93,7.4,15.25,10.62-.8.96-2.79-2-3.5-1.25l-.25,30.75c2.76-2.1,6.07-5.72,8-8.62l.25.5c-6.79,8.29-14.03,15.12-22,22.25-6.96,4.34-13.39,14.1-20.25,19-7.48-19.29-22.63-39.5-43-46.25-.08-.02-.17.02-.25,0-.94-.56-2.45-1.27-3.5-1.5-.15-.03-.34.02-.5,0-.35-.33-.75-.16-1-.25-.55-.19-1.16-.64-1.75-.75-.38-.07-.54-.21-.75-.25-.16-.03-.34.02-.5,0-1.9-.79-4-.9-6-1.25-1.71-.3-5.14-1.36-6.25-1.5.46-1.85.25-3.86.25-5.75,28.32-1.82,52.49-21.21,60.25-48.5.76.14,2.14,1.68,2.75,2.25Z"/>
          <path class="cls-26" d="M89.5,112.25c-1.17.5-6.49,2.71-7.38,2.5-.19-.04-.02-.83-.5-1-.15-.05-2.55.94-3,1-7.72,1.08-15.47.77-23.25.5-.78-.29,1.54-6.31,1.88-7.12,1.39-3.43,3.74-7.48,5.75-10.62,3.33-5.22,7.24-9.77,12-13.75l7.62-5c13.27-7.8,28.91-10.41,44.12-7.88-4.45,16.72-15.53,29.95-30.62,38.12-1.97,1.06-4.88,2.51-6.62,3.25Z"/>
          <path class="cls-34" d="M84.25,77.25c-3.26,1.79-6.4,4.12-9.25,6.5-4.76,3.98-8.67,8.53-12,13.75-1.85.61.73-1.58-.38-2.25-2.12,2.17-3.83,4.59-5.12,7.38l-.5-1.38c1.86-3.55,4.45-7.41,7-10.5,5.1-6.19,11.46-11.22,18.5-15l1.75,1.5Z"/>
          <path class="cls-33" d="M89.5,112.25c1.74-.74,4.66-2.19,6.62-3.25,15.09-8.17,26.17-21.41,30.62-38.12-15.21-2.53-30.85.08-44.12,7.88l-7.62,5c2.85-2.38,5.99-4.71,9.25-6.5,14.07-7.74,24.49-8.1,40.12-7.75,1.11.03,3.2.4,3.5-.75l.38.38c-5.41,19.4-19.26,36.71-38.75,43.12Z"/>
          <path class="cls-2" d="M132.5,73.75c-7.76,27.29-31.93,46.68-60.25,48.5v-.5c28.54-1.99,51.66-20.81,59.75-48.12l.5.12Z"/>
          <path class="cls-2" d="M92.5,114.25c-1.89.8-4.51,2.13-6.88,2.75-10.3,2.7-21.13,2.61-31.62,1.12,4.34-.37,8.78.64,13.12.62,8.66-.03,17.24-1.67,25.38-4.5Z"/>
          <path class="cls-33" d="M93.25,114c-.55.25-.67.22-.75.25.25-.09.52-.16.75-.25Z"/>
          <path class="cls-3" d="M84.25,130.75c.16.02.34-.03.5,0-.51.78.51,1.07.75.25.59.11,1.2.56,1.75.75-.55.76.93.24,1,.25.16.02.35-.03.5,0-.48,1.05,2.95,1.32,3.5,1.5.08.02.17-.02.25,0,3.76,2.28,7.89,3.88,11.62,6.25,3.4,2.16,6.44,4.78,9.38,7.5l.38,1.25-2.62-.25c-2.23-2.01-5.87-4.87-8.38-6.5-2.9-1.88-6.87-4.09-10.12-4.88,13.28,6.15,24.64,16.31,32,29,2.16,3.72,6.26,12.16,6.75,16.25.05.43.28,1.36-.12,1.62-13.66,1.43-29.18.12-41.75-5.75-1.26-.59-5.58-2.19-4.62-3.75,11.8,6.46,25.91,9.25,39.38,8.5.98-.05,3.3-.09,4-.75-11.56.92-23-.03-33.88-4,1.22-.04,1.43-1.32,2.25-2.25,9.84,3.59,20.41,4.56,30.88,4.25.93-.41-1.22-5.65-1.62-6.62-5.96-14.38-18.55-26.51-32.25-33.38-4.15-2.08-7.42-3.72-12-4.75.09-1.1-1.33-.59-.62-2l8.12,1.88c-3.08-1.24-6.34-1.92-9.5-2.88l.62-2c1.12.67,3.01.37,3.88.5ZM91.12,136c-.25.14.22.5.25.5.47-.05.39-.84-.25-.5Z"/>
          <path class="cls-28" d="M81.75,135.25c4.58,1.03,7.85,2.67,12,4.75-.66.26.15.63.38.75,15.15,7.93,27.49,20.82,32.62,37.38-10.21.96-20.21.66-29.88-2.88-2.61-.95-5.47-3.15-8.12-3.25-11.58-6.09-21.41-15.91-27.75-27.38-.71-1.28-6.04-12.18-5.38-12.62,2.09-.11,16.06.06,16.75.75.37.38-.33.7-.12.88.87.74,7.87,1.26,9.5,1.62Z"/>
          <path class="cls-33" d="M96.75,175.75c-2.64-.96-5.5-2.44-8-3.75,2.65.1,5.51,2.3,8.12,3.25,9.66,3.53,19.66,3.84,29.88,2.88-5.13-16.55-17.47-29.44-32.62-37.38-.23-.12-1.03-.49-.38-.75,13.7,6.87,26.29,18.99,32.25,33.38.4.97,2.56,6.22,1.62,6.62-10.46.31-21.04-.66-30.88-4.25Z"/>
          <path class="cls-2" d="M78.5,169.5c4.3,3.16,10.98,6.67,16,8.5,10.87,3.97,22.32,4.92,33.88,4-.7.66-3.02.7-4,.75-13.46.75-27.57-2.04-39.38-8.5-1.89-1.04-4.57-2.76-6.38-4-.13-.09-1.06-.82-.12-.75Z"/>
          <path class="cls-3" d="M78.25,129.5c2,.35,4.1.46,6,1.25-.87-.13-2.75.17-3.88-.5l-.62,2c-1.43-.43-1.27-.47-2.38-1-.03-.02-.47.52-.5.5-.47-.3-1.2-1.96-.5-2.25.09-.04,1.48.72,1.88,0Z"/>
          <path class="cls-34" d="M92.25,133.5c-.55-.18-3.98-.45-3.5-1.5,1.05.23,2.56.94,3.5,1.5Z"/>
          <path class="cls-34" d="M85.5,131c-.24.82-1.26.53-.75-.25.21.04.37.18.75.25Z"/>
          <path class="cls-34" d="M88.25,132c-.07,0-1.55.51-1-.25.25.09.65-.08,1,.25Z"/>
          <path class="cls-34" d="M91.12,136c.64-.34.72.45.25.5-.03,0-.5-.36-.25-.5Z"/>
        </g>
      </g>
    </pattern>
    <pattern id="Generated_Pattern_4-2" data-name="Generated Pattern 4" patternTransform="translate(23553.75 23825.12) scale(3.92)" xlink:href="#Generated_Pattern_4"/>
    <pattern id="Generated_Pattern_4-3" data-name="Generated Pattern 4" patternTransform="translate(23553.75 23825.12) scale(3.92)" xlink:href="#Generated_Pattern_4"/>
    <pattern id="Generated_Pattern_6" data-name="Generated Pattern 6" x="0" y="0" width="256" height="256" patternTransform="translate(23553.75 23825.12) scale(3.92)" patternUnits="userSpaceOnUse" viewBox="0 0 256 256">
      <g>
        <rect class="cls-1" width="256" height="256"/>
        <path class="cls-39" d="M40.25,0c11.78,4.49,20.97,13.97,23.62,26.5,2.76-12.75,11.88-22.33,24.12-26.5h16.25c11.65,4.42,21.13,13.98,23.38,26.5,3.26-12.52,12.21-22.17,24.38-26.5h16c11.64,4.11,21.45,14.13,23.62,26.5,1.38-2.71,1.8-5.89,3.12-8.62,4.14-8.57,12.36-14.48,21-17.88h16.25c5.86,2.16,11.27,5.47,15.5,10.12s6.7,10.23,8.5,16.38v10c-3.92,13.43-13.76,23.42-27.5,26.62,8.44,1.97,16.06,6.76,21.25,13.75,3.03,4.08,4.77,8.54,6.25,13.38v10.25c-1.31,2.9-2.01,6.04-3.5,8.88-4.77,9.09-14.12,14.95-23.75,17.75,7.11,1.77,13.52,5.37,18.5,10.75,4.51,4.87,6.92,10.31,8.75,16.62v10c-3.94,13.43-13.71,23.42-27.5,26.62,9.59,2.25,18.55,8.36,23.5,17,1.86,3.25,2.81,6.85,4,10.38v10c-1.16,2.13-1.5,4.68-2.5,6.88-3.64,8-11.09,14.52-19.12,17.88-1.15.48-4.56,1.11-5.25,1.5-1.39.78,1.66.59,1.62,1.25h-13.5l2.12-1c-13.43-3.03-24.26-12.98-27.5-26.5-3.85,13.26-13.59,23.48-27.25,26.5l2.12,1h-13.5l2.12-1c-13.57-3.14-24-12.93-27.5-26.5-3.03,11.01-10.21,19.91-20.75,24.5-1.35.59-5.1,1.25-6,1.75-1.39.78,1.81.66,1.88,1.25h-13.75l2.12-1c-13.51-3.08-24.14-12.96-27.5-26.5-3.48,11.33-10.46,20.09-21.5,24.75-.42.18-6.53,1.72-5.5,2.25l1.88.5h-13.75l2.38-.5c1.01-.54-5.53-2.06-6-2.25-10.57-4.26-18-12.95-21.38-23.75v-11.75c2.89-13.12,13.79-23.76,27-26.38-3.36-1.7-7.07-2.53-10.38-4.38-8.14-4.55-14.1-12.87-16.62-21.75v-11.75c3.23-13.06,14.11-23.8,27.5-26.12-3.56-1.62-7.43-2.44-10.88-4.38-8.18-4.59-13.72-12.74-16.62-21.5v-11.75c2.99-13.18,13.61-23.45,26.75-26.38-3.23-1.81-6.88-2.56-10.12-4.38C8.48,54.45,2.77,46.3,0,37.5v-11.75C2.72,13.4,12.14,4.27,23.75,0h16.5ZM241.5,8.75c-.48-.42-.76-.62-1.25-1-3.1-2.38-6.41-4-10.12-5.25-.95.58-.09,15.96-.12,18.12-.17,10.82-1.86,25.49-.5,36,.06.44.37,2.15.62,2.38,10.38-1.29,20.83-12.09,22.88-22.38,1.94-9.74-3-22.5-11.5-27.88ZM114,9.25c-.64-.58-1.05-.96-1.75-1.5-2.7-2.08-5.59-3.82-8.88-4.75-1.21.42-.64,11.5-.62,13.38.04,6.23-.66,37.89.75,41.25.09.22.69,1.08.88,1.12,15.85-5.57,25.25-21.17,18.88-37.62-1.58-4.09-5.33-10.01-9.25-11.88ZM76.38,9.25c-2.11.27-2.2,2.98-2.62,3.62-1.93,2.9-4.01,5.35-5.25,8.75-4.23,11.65-.52,23.63,8.88,31.38,1.53-.57,1.19-23.38,1.12-26.38-.08-3.76.17-12.24-.25-15.25-.21-1.49-.05-2.36-1.88-2.12ZM198.5,17.75c-5.17,9.31-5.21,18.26.25,27.5,1.74,2.94,3.95,5.62,6.62,7.75.01-.3.36-.8.38-.88,1.5-7.25-.11-25.19-.25-33.25-.02-1.27,1.15-8.87-.38-9.12-2.89,2.02-4.93,4.95-6.62,8ZM63.88,36.5c-3.47,13.6-13.64,23.21-27.12,26.62,13.16,3.13,24.46,13.86,26.88,27.38,3.5-13.36,14.05-24.53,27.88-27.12-13.57-3.97-24.05-12.87-27.62-26.88ZM191.88,36.5c-3.42,13.48-13.64,23.32-27.12,26.62,13.56,3.22,24.04,13.78,27.12,27.38,2.74-13.75,14.16-24.29,27.62-27.38-13.64-3.26-24.11-12.93-27.62-26.62ZM127.62,36.75c-2.68,9.76-8.65,17.79-17.5,22.75l-9.38,3.88c13.53,2.6,24.12,13.87,27.12,27.12,3-13.95,13.81-24.21,27.62-27.38-9.46-2.49-18.44-7.93-23.5-16.5-1.86-3.15-2.73-6.64-4.38-9.88ZM50,73.25c-.79-.73-1.11-1.06-2-1.75-2.9-2.25-6.13-3.86-9.62-5l-.88,1.62c.82,15.99-1.06,33.66.25,49.5.08.93.68,5.46,1.38,5.62,12.26-3.51,23.09-15.95,22.38-29.12-.38-7-5.36-17.32-11.5-20.88ZM178.25,73c-.76-.63-1.92-1.45-2.75-2-2.81-1.85-6.04-3.74-9.38-4.25l-.38.62.62,55.62c7.83-1.13,15.55-7.54,19.38-14.38,6.86-12.27,3.11-26.91-7.5-35.62ZM134.5,81.5c-4.76,8.53-5.15,17.2-.75,26,1.82,3.65,4.47,6.95,7.62,9.5l.62-.88.5-42.5c-.47-.85-1.45-.63-2.12-.12-.94.7-5.14,6.69-5.88,8ZM6.25,82c-4.65,8.58-4.85,17.32-.25,26,1.99,3.75,4.86,7.12,8.25,9.62-.87-1.39-.02-3.38,0-5,.03-3.18-.5-6.55-.5-9.75,0-4.24,1.05-26.81.25-28.75-.09-.21-.57-.44-.62-.88-2.77,2.59-5.3,5.39-7.12,8.75ZM63.62,100.5c-2.4,9.64-9.1,18.68-18,23.25-2.93,1.51-6.2,2.14-9.12,3.62,13.58,2.45,24.49,13.77,27.38,27.12,3.02-13.97,13.75-24.23,27.62-27.38-13.86-3.34-23.86-12.95-27.88-26.62ZM127.62,100.5c-2.94,13.64-13.61,23.22-26.88,26.62,13.55,3.24,23.99,13.77,27.12,27.38,2.83-13.65,14.2-24.28,27.62-27.38-13.93-3.33-23.73-12.98-27.88-26.62ZM191.88,100.5c-3.95,13.63-13.71,23.09-27.38,26.88,13.58,2.42,24.43,13.82,27.38,27.12,2.85-14.02,13.86-24.22,27.62-27.38-13.49-3.26-24.32-12.95-27.62-26.62ZM242,137c-.58-.47-1.15-.83-1.75-1.25-3.22-2.26-6.5-4.47-10.5-5.12l.38,56.38c7.53-1.03,15.13-6.91,19.12-13.38,7.85-12.7,4-27.6-7.25-36.62ZM114,137.25c-.63-.58-1.08-.96-1.75-1.5-1.67-1.34-4.4-3.27-6.38-4-.86-.31-2.72-1.3-3.12-.12-.17.48-.46,5.81-.5,6.75-.51,12.55-.07,28.85.5,41.5.05,1.01.47,6.58,1.38,6.88,12.76-3.62,22.88-17.19,21.12-30.62-.84-6.41-5.61-15.72-11.25-18.88ZM76.88,136.75c-2.42.13-2.51,3.18-3.12,4.12-1.91,2.96-3.98,5.26-5.25,8.75-4.32,11.86-.4,23.78,9.12,31.62,1.7-.61.63-13.02.62-15.12-.03-9.66.3-19.38-.25-29-.31-.45-.64-.4-1.12-.38ZM198.75,145.25c-5.44,9.32-5.56,18.69,0,28,.69,1.15,1.4,2.33,2.25,3.38.57.7,4.54,5.29,5,4v-42c-.85-1.52-1.19-.89-2.38.12-1.89,1.62-3.62,4.35-4.88,6.5ZM63.62,164.5c-2.88,13.65-13.65,23.21-26.88,26.62,13.45,3.2,24.09,13.86,27.12,27.38,2.85-13.65,14.2-24.24,27.62-27.38-13.95-3.36-23.7-12.95-27.88-26.62ZM127.62,164.5c-2.53,9.76-8.9,18.64-18,23.25-2.95,1.49-6.2,2.12-9.12,3.62,13.58,2.33,24.43,13.84,27.38,27.12,3-13.88,13.81-24.28,27.62-27.38-13.87-3.35-23.85-12.95-27.88-26.62ZM191.62,164.5c-2.86,13.5-13.65,23.4-26.88,26.62,13.53,3.18,24.1,13.82,27.12,27.38,2.74-13.76,14.14-24.29,27.62-27.38-13.93-3.33-23.77-12.94-27.88-26.62ZM49.75,201c-.86-.78-1.23-1.25-2.25-2-2.76-2.02-6.13-3.49-9.38-4.5-1.05,2.63-.36,5.33-.38,7.88-.1,16.28,0,32.18,1.12,48.38,4.56-.4,9.62-3.63,13-6.75,6.52-6.03,10.54-14.89,9.38-23.88-.86-6.58-5.72-15.8-11.5-19.12ZM179.75,202.5c-1.34-1.26-2.24-1.96-3.75-3-3.14-2.17-5.93-3.83-9.62-5-.11.03-.6.78-.62.88-.96,3.87-.27,16.48-.25,21.25.03,6.97.61,14.16.75,21,.04,1.88-.91,13.17.38,13.62,22.36-6.17,30.78-32.2,13.12-48.75ZM140.88,201.25c-1.93.03-2.11,2.44-2.62,3.12-7.67,10.13-10.63,20.34-4,32.25.65,1.17,5.8,8,6.62,7.88,1.67-.24.6-4.17.62-5.12.36-12.51.55-24.99.5-37.5-.39-.42-.48-.63-1.12-.62ZM6.5,209.75c-4.85,8.68-5.17,16.52-.75,25.5.71,1.45,1.3,2.8,2.25,4.12,5.79,8.07,6.09,5.37,6.25-2.75.23-11.45-.53-23.06-.25-34.5-.75-1.49-2.56.8-3.25,1.5-1.7,1.71-3.08,4.03-4.25,6.12Z"/>
        <path class="cls-15" d="M217.25,256h-50.5l-2.12-1c13.66-3.02,23.4-13.24,27.25-26.5,3.24,13.52,14.07,23.47,27.5,26.5l-2.12,1Z"/>
        <path class="cls-15" d="M153.25,256h-50.25c-.07-.59-3.27-.47-1.88-1.25.9-.5,4.65-1.16,6-1.75,10.54-4.59,17.72-13.49,20.75-24.5,3.5,13.57,13.93,23.36,27.5,26.5l-2.12,1Z"/>
        <g>
          <path class="cls-15" d="M152,0c-12.16,4.33-21.12,13.98-24.38,26.5-2.24-12.52-11.72-22.08-23.38-26.5h47.75Z"/>
          <path class="cls-15" d="M215.75,0c-8.64,3.4-16.86,9.31-21,17.88-1.32,2.73-1.75,5.92-3.12,8.62-2.17-12.37-11.98-22.39-23.62-26.5h47.75Z"/>
          <path class="cls-15" d="M88,0c-12.25,4.17-21.37,13.75-24.12,26.5-2.65-12.53-11.85-22.01-23.62-26.5h47.75Z"/>
        </g>
        <path class="cls-39" d="M256,87c-4.21-11.18-13.3-20.68-25-23.88,11.99-3.38,20.59-12.47,25-23.88v47.75Z"/>
        <path class="cls-39" d="M256,215c-4.07-11.18-13-20.01-24.25-23.88,11.55-4.09,19.87-12.48,24.25-23.88v47.75Z"/>
        <path class="cls-39" d="M256,151c-2.68-6.5-6-11.87-11.38-16.5-3.99-3.44-8.13-5.67-13.12-7.38,11.55-4.06,20.41-12.22,24.5-23.88v47.75Z"/>
        <path class="cls-39" d="M0,150.5v-46.5c4.31,11.31,13.25,19.91,25,23.12-11.67,3.19-20.97,12-25,23.38Z"/>
        <g>
          <path class="cls-15" d="M89.25,256h-50.5l-1.88-.5c-1.03-.53,5.08-2.07,5.5-2.25,11.04-4.66,18.02-13.42,21.5-24.75,3.36,13.54,13.99,23.42,27.5,26.5l-2.12,1Z"/>
          <path class="cls-39" d="M23,256H0v-24c4.17,10.93,13.23,20.29,24.88,22.75l-1.88,1.25Z"/>
        </g>
        <path class="cls-39" d="M234.25,0h21.75v23.75c-3.31-10.87-11.51-19.18-21.75-23.75Z"/>
        <path class="cls-39" d="M21.75,0C11.6,4.26,3.69,12.05,0,22.5V0h21.75Z"/>
        <path class="cls-15" d="M0,153.5v-3c4.03-11.37,13.33-20.18,25-23.38-11.75-3.22-20.69-11.82-25-23.12v-2.5c2.9,8.76,8.45,16.91,16.62,21.5,3.45,1.94,7.31,2.75,10.88,4.38-13.39,2.32-24.27,13.06-27.5,26.12Z"/>
        <path class="cls-15" d="M256,103.25c-4.09,11.66-12.95,19.82-24.5,23.88,4.99,1.7,9.13,3.94,13.12,7.38,5.37,4.63,8.7,10,11.38,16.5v3.5c-1.83-6.32-4.24-11.76-8.75-16.62-4.98-5.38-11.39-8.98-18.5-10.75,9.63-2.8,18.98-8.66,23.75-17.75,1.49-2.83,2.19-5.97,3.5-8.88v2.75Z"/>
        <path class="cls-15" d="M63.62,100.5c4.01,13.67,14.02,23.28,27.88,26.62-13.87,3.14-24.61,13.41-27.62,27.38-2.88-13.35-13.8-24.67-27.38-27.12,2.92-1.49,6.19-2.12,9.12-3.62,8.9-4.57,15.6-13.61,18-23.25Z"/>
        <path class="cls-15" d="M127.62,164.5c4.03,13.67,14.01,23.27,27.88,26.62-13.81,3.1-24.63,13.49-27.62,27.38-2.94-13.29-13.8-24.8-27.38-27.12,2.92-1.51,6.18-2.13,9.12-3.62,9.1-4.61,15.47-13.49,18-23.25Z"/>
        <path class="cls-15" d="M63.62,164.5c4.17,13.67,13.92,23.26,27.88,26.62-13.42,3.13-24.77,13.72-27.62,27.38-3.04-13.51-13.67-24.18-27.12-27.38,13.22-3.41,24-12.97,26.88-26.62Z"/>
        <path class="cls-15" d="M127.62,36.75c1.64,3.23,2.52,6.73,4.38,9.88,5.06,8.57,14.04,14.01,23.5,16.5-13.82,3.17-24.63,13.43-27.62,27.38-3.01-13.26-13.6-24.53-27.12-27.12l9.38-3.88c8.85-4.96,14.82-12.99,17.5-22.75Z"/>
        <path class="cls-15" d="M63.88,36.5c3.58,14,14.05,22.91,27.62,26.88-13.82,2.6-24.38,13.77-27.88,27.12-2.41-13.51-13.72-24.25-26.88-27.38,13.48-3.41,23.66-13.02,27.12-26.62Z"/>
        <path class="cls-15" d="M127.62,100.5c4.15,13.65,13.95,23.29,27.88,26.62-13.43,3.1-24.8,13.72-27.62,27.38-3.13-13.6-13.57-24.13-27.12-27.38,13.26-3.4,23.94-12.99,26.88-26.62Z"/>
        <path class="cls-15" d="M191.88,100.5c3.31,13.67,14.13,23.37,27.62,26.62-13.77,3.16-24.78,13.35-27.62,27.38-2.95-13.3-13.79-24.71-27.38-27.12,13.66-3.78,23.42-13.25,27.38-26.88Z"/>
        <path class="cls-15" d="M191.88,36.5c3.52,13.7,13.98,23.36,27.62,26.62-13.47,3.09-24.88,13.63-27.62,27.38-3.09-13.59-13.56-24.15-27.12-27.38,13.48-3.3,23.7-13.14,27.12-26.62Z"/>
        <path class="cls-15" d="M191.62,164.5c4.1,13.68,13.94,23.29,27.88,26.62-13.48,3.09-24.89,13.62-27.62,27.38-3.03-13.56-13.6-24.2-27.12-27.38,13.23-3.23,24.01-13.13,26.88-26.62Z"/>
        <g>
          <path class="cls-15" d="M112.25,135.75c-1.25.8-1.15,2.74-1.25,4.12-.73,10.55-.43,24.82,0,35.5.04.87.29,6.99.62,7.12,2.32-1.56,4.54-3.51,6.38-5.62,5.45-6.28,7.1-14.9,5.75-22.25-1.23-6.68-4.49-12.51-9.75-17.38,5.64,3.15,10.41,12.46,11.25,18.88,1.76,13.43-8.37,27.01-21.12,30.62-.9-.29-1.33-5.86-1.38-6.88-.57-12.65-1.01-28.95-.5-41.5.04-.94.33-6.27.5-6.75.4-1.17,2.27-.19,3.12.12,1.98.73,4.7,2.66,6.38,4Z"/>
          <path class="cls-14" d="M114,137.25c5.26,4.86,8.52,10.7,9.75,17.38,1.35,7.35-.3,15.97-5.75,22.25-1.83,2.11-4.05,4.06-6.38,5.62-.33-.14-.59-6.26-.62-7.12-.43-10.68-.73-24.95,0-35.5.1-1.38,0-3.32,1.25-4.12.67.54,1.12.92,1.75,1.5Z"/>
          <path class="cls-15" d="M76.88,136.75c.49-.03.81-.08,1.12.38.55,9.62.22,19.34.25,29,0,2.1,1.08,14.52-.62,15.12-9.53-7.84-13.44-19.77-9.12-31.62,1.27-3.49,3.34-5.79,5.25-8.75.61-.95.71-3.99,3.12-4.12Z"/>
        </g>
        <g>
          <path class="cls-15" d="M112.25,7.75c-.34.07-.96.89-1,1.12-.61,3.3.57,9.51.5,13.25-.15,8.22-1.08,16.45-.75,24.75.09,2.29,0,5.54.88,7.38.87.51,7.55-7.07,8.38-8.38,7.54-11.91,4.16-27.16-6.25-36.62,3.92,1.87,7.67,7.78,9.25,11.88,6.37,16.46-3.02,32.06-18.88,37.62-.19-.04-.78-.9-.88-1.12-1.41-3.36-.71-35.02-.75-41.25-.01-1.88-.59-12.95.62-13.38,3.29.93,6.18,2.67,8.88,4.75Z"/>
          <path class="cls-14" d="M114,9.25c10.41,9.46,13.79,24.71,6.25,36.62-.82,1.3-7.5,8.88-8.38,8.38-.87-1.84-.79-5.09-.88-7.38-.33-8.3.6-16.53.75-24.75.07-3.74-1.11-9.95-.5-13.25.04-.23.66-1.05,1-1.12.7.54,1.11.92,1.75,1.5Z"/>
          <path class="cls-15" d="M76.38,9.25c1.82-.24,1.67.64,1.88,2.12.42,3.01.17,11.49.25,15.25.06,3,.41,25.81-1.12,26.38-9.4-7.75-13.11-19.72-8.88-31.38,1.24-3.4,3.32-5.85,5.25-8.75.43-.64.51-3.35,2.62-3.62Z"/>
        </g>
        <g>
          <g>
            <path class="cls-39" d="M256,231.25v24.75h-22.75l-1.38-1c11.43-4.03,20.06-12.32,24.12-23.75Z"/>
            <path class="cls-15" d="M256,231.25c-4.07,11.43-12.69,19.72-24.12,23.75l1.38,1h-2.5c.04-.66-3.02-.47-1.62-1.25.69-.39,4.1-1.02,5.25-1.5,8.03-3.36,15.49-9.88,19.12-17.88,1-2.2,1.34-4.75,2.5-6.88v2.75Z"/>
          </g>
          <g>
            <path class="cls-15" d="M176,199.5l-1.5,1.38c.15,9.32-.14,18.7,0,28,.04,2.45.72,5.75.75,8,.04,3.53-.94,6.82-.38,10.12.84-.64,1.95-1.07,2.75-1.75,11.66-9.91,13.41-24.11,6.62-36.62l-4.5-6.12c17.65,16.55,9.23,42.58-13.12,48.75-1.29-.46-.34-11.75-.38-13.62-.14-6.84-.72-14.03-.75-21-.02-4.77-.71-17.38.25-21.25.02-.09.51-.85.62-.88,3.69,1.17,6.48,2.83,9.62,5Z"/>
            <path class="cls-15" d="M176,199.5c1.51,1.04,2.41,1.74,3.75,3l4.5,6.12c6.79,12.51,5.03,26.71-6.62,36.62-.8.68-1.91,1.11-2.75,1.75-.57-3.3.42-6.6.38-10.12-.03-2.25-.71-5.55-.75-8-.14-9.3.15-18.68,0-28l1.5-1.38Z"/>
            <path class="cls-15" d="M140.88,201.25c.64,0,.73.21,1.12.62.05,12.51-.14,24.99-.5,37.5-.03.96,1.04,4.88-.62,5.12-.83.12-5.98-6.71-6.62-7.88-6.63-11.91-3.67-22.12,4-32.25.52-.69.7-3.1,2.62-3.12Z"/>
          </g>
        </g>
        <g>
          <path class="cls-15" d="M256,167.25c-4.38,11.39-12.7,19.79-24.25,23.88,11.25,3.86,20.18,12.7,24.25,23.88v3.5c-1.19-3.53-2.14-7.12-4-10.38-4.95-8.64-13.91-14.75-23.5-17,13.79-3.21,23.56-13.19,27.5-26.62v2.75Z"/>
          <g>
            <path class="cls-15" d="M240.25,135.75c-1.49.39-1.37,2.07-1.5,3.38-1.07,10.69-.56,29.03,0,40,.02.46.37,3.55.62,3.62,6.81-4.93,11.52-11.1,12.62-19.62.87-6.68-.74-14.91-5.25-20.75-1.36-1.76-3.17-2.96-4.5-4.5-.32-.37-.64-.34-.25-.88,11.25,9.03,15.1,23.93,7.25,36.62-4,6.47-11.59,12.35-19.12,13.38l-.38-56.38c4,.66,7.28,2.87,10.5,5.12Z"/>
            <path class="cls-15" d="M242,137c-.39.53-.07.51.25.88,1.33,1.54,3.14,2.74,4.5,4.5,4.51,5.84,6.12,14.07,5.25,20.75-1.11,8.52-5.82,14.7-12.62,19.62-.25-.07-.6-3.17-.62-3.62-.56-10.97-1.07-29.31,0-40,.13-1.3,0-2.99,1.5-3.38.6.42,1.17.78,1.75,1.25Z"/>
            <path class="cls-15" d="M198.75,173.25v-28c1.25-2.15,2.98-4.88,4.88-6.5,1.18-1.01,1.53-1.65,2.38-.12v42c-.46,1.29-4.43-3.3-5-4-.85-1.04-1.56-2.22-2.25-3.38Z"/>
            <path class="cls-15" d="M198.75,173.25c-5.56-9.31-5.44-18.68,0-28v28Z"/>
          </g>
        </g>
        <g>
          <path class="cls-15" d="M256,39.25c-4.41,11.4-13.01,20.5-25,23.88,11.7,3.19,20.79,12.7,25,23.88v3.25c-1.48-4.84-3.22-9.3-6.25-13.38-5.19-6.99-12.81-11.78-21.25-13.75,13.74-3.21,23.58-13.19,27.5-26.62v2.75Z"/>
          <g>
            <path class="cls-15" d="M234.25,0c10.24,4.57,18.44,12.88,21.75,23.75v2.75c-1.8-6.15-4.15-11.59-8.5-16.38s-9.64-7.96-15.5-10.12h2.25Z"/>
            <path class="cls-15" d="M240.25,7.75c-1.59.88-.59,2.8-1.25,4.12l.12,42.88c.73-.54,1.82-.96,2.5-1.5,14.75-11.61,13.68-32.48-.12-44.5,8.5,5.38,13.44,18.13,11.5,27.88-2.05,10.29-12.5,21.09-22.88,22.38-.25-.22-.57-1.94-.62-2.38-1.36-10.51.33-25.18.5-36,.03-2.17-.83-17.55.12-18.12,3.71,1.25,7.02,2.87,10.12,5.25Z"/>
            <path class="cls-15" d="M241.5,8.75c13.8,12.02,14.87,32.89.12,44.5-.68.54-1.77.96-2.5,1.5l-.12-42.88c.66-1.33-.34-3.25,1.25-4.12.49.38.77.58,1.25,1Z"/>
            <path class="cls-15" d="M198.75,45.25c1.09-4.97.9-10.74.75-15.88-.09-3.13-.22-7.45-.5-10.5-.02-.21-.26-1.04-.5-1.12,1.69-3.05,3.73-5.98,6.62-8,1.53.26.35,7.85.38,9.12.14,8.06,1.75,26,.25,33.25-.02.07-.36.58-.38.88-2.68-2.13-4.89-4.81-6.62-7.75Z"/>
            <path class="cls-15" d="M198.75,45.25c-5.46-9.24-5.42-18.19-.25-27.5.24.09.48.91.5,1.12.28,3.05.41,7.37.5,10.5.15,5.14.34,10.9-.75,15.88Z"/>
          </g>
        </g>
        <g>
          <path class="cls-39" d="M0,86.5v-46.5c4.27,11.39,13.2,19.85,25,23.12-11.7,3.08-20.96,12.03-25,23.38Z"/>
          <path class="cls-15" d="M0,89.75v-3.25c4.04-11.34,13.3-20.3,25-23.38-11.8-3.27-20.73-11.73-25-23.12v-2.5c2.77,8.8,8.48,16.95,16.62,21.5,3.25,1.81,6.9,2.57,10.12,4.38-13.14,2.93-23.76,13.19-26.75,26.38Z"/>
          <path class="cls-15" d="M23.75,0C12.14,4.27,2.72,13.4,0,25.75v-3.25C3.69,12.05,11.6,4.26,21.75,0h2Z"/>
          <g>
            <path class="cls-15" d="M48,71.5c-.65-.14-1.2,1.3-1.25,1.62-1.26,8.23-.73,33.86,0,42.75.03.4.3,2.51.62,2.62.91-.55,1.92-1.1,2.75-1.75,7.56-5.9,11.44-17.14,10.12-26.12-.74-5.08-5.6-13.07-10.25-17.38,6.14,3.55,11.12,13.87,11.5,20.88.71,13.18-10.11,25.61-22.38,29.12-.7-.16-1.3-4.7-1.38-5.62-1.31-15.84.57-33.51-.25-49.5l.88-1.62c3.5,1.14,6.73,2.75,9.62,5Z"/>
            <path class="cls-14" d="M48,71.5c.89.69,1.21,1.02,2,1.75,4.65,4.3,9.51,12.3,10.25,17.38,1.32,8.99-2.56,20.23-10.12,26.12-.83.65-1.84,1.2-2.75,1.75-.32-.12-.59-2.22-.62-2.62-.73-8.89-1.26-34.52,0-42.75.05-.32.6-1.77,1.25-1.62Z"/>
            <path class="cls-15" d="M6,108c.67.16.95-1.01,1-1.38.25-1.77.53-22.59.25-23.75-.06-.27-.54-1.02-1-.88,1.82-3.36,4.35-6.16,7.12-8.75.05.44.54.67.62.88.8,1.94-.25,24.51-.25,28.75,0,3.2.53,6.57.5,9.75-.02,1.62-.87,3.61,0,5-3.39-2.51-6.26-5.87-8.25-9.62Z"/>
            <path class="cls-15" d="M6,108c-4.6-8.68-4.4-17.42.25-26,.46-.15.94.61,1,.88.28,1.16,0,21.98-.25,23.75-.05.36-.33,1.53-1,1.38Z"/>
          </g>
        </g>
        <g>
          <path class="cls-15" d="M175.5,71l-1,1.38.38,46.62c9.83-5.83,15.04-18.21,13.12-28.62-.42-2.3-3.44-9.5-5.25-12-1.27-1.76-3.63-3.26-4.5-5.38,10.61,8.72,14.36,23.36,7.5,35.62-3.82,6.84-11.54,13.25-19.38,14.38l-.62-55.62.38-.62c3.33.51,6.56,2.4,9.38,4.25Z"/>
          <path class="cls-15" d="M178.25,73c.87,2.12,3.23,3.61,4.5,5.38,1.81,2.5,4.83,9.7,5.25,12,1.92,10.41-3.3,22.8-13.12,28.62l-.38-46.62,1-1.38c.83.55,1.99,1.37,2.75,2Z"/>
          <path class="cls-15" d="M133.75,107.5c1,.3,1.21-1.72,1.25-2.38.38-6.11.55-16.5,0-22.5-.02-.21-.26-1.04-.5-1.12.73-1.31,4.94-7.3,5.88-8,.67-.51,1.66-.73,2.12.12l-.5,42.5-.62.88c-3.15-2.55-5.8-5.85-7.62-9.5Z"/>
          <path class="cls-15" d="M133.75,107.5c-4.4-8.8-4.01-17.47.75-26,.24.09.48.91.5,1.12.55,6,.38,16.39,0,22.5-.04.65-.25,2.68-1.25,2.38Z"/>
        </g>
        <g>
          <path class="cls-39" d="M0,214.5v-46.5c4.23,11.39,13.11,19.61,24.75,23.12-11.57,3.24-20.81,12.09-24.75,23.38Z"/>
          <path class="cls-15" d="M0,217.75v-3.25c3.94-11.29,13.18-20.13,24.75-23.38-11.64-3.51-20.52-11.74-24.75-23.12v-2.75c2.52,8.88,8.48,17.2,16.62,21.75,3.3,1.85,7.01,2.68,10.38,4.38-13.21,2.62-24.11,13.25-27,26.38Z"/>
          <g>
            <path class="cls-15" d="M25,256h-2l1.88-1.25c-11.64-2.46-20.71-11.82-24.88-22.75v-2.5c3.38,10.8,10.81,19.49,21.38,23.75.47.19,7.01,1.71,6,2.25l-2.38.5Z"/>
            <path class="cls-15" d="M47.5,199l-.12,47.5c.91.33,7.48-6.66,8.38-7.88,8.56-11.67,4.56-28-6-37.62,5.78,3.33,10.64,12.54,11.5,19.12,1.17,8.98-2.86,17.85-9.38,23.88-3.38,3.12-8.44,6.35-13,6.75-1.12-16.2-1.22-32.1-1.12-48.38.02-2.55-.68-5.24.38-7.88,3.24,1.01,6.62,2.48,9.38,4.5Z"/>
            <path class="cls-14" d="M49.75,201c10.56,9.63,14.56,25.95,6,37.62-.89,1.22-7.47,8.2-8.38,7.88l.12-47.5c1.02.75,1.39,1.22,2.25,2Z"/>
            <path class="cls-15" d="M5.75,235.25c.43-.15.63-.45.75-.88.62-2.15,1.11-21.01.75-23.5-.02-.15-.41-1.13-.75-1.12,1.17-2.1,2.55-4.42,4.25-6.12.69-.7,2.5-2.99,3.25-1.5-.28,11.44.48,23.05.25,34.5-.16,8.12-.46,10.82-6.25,2.75-.95-1.33-1.54-2.68-2.25-4.12Z"/>
            <path class="cls-15" d="M5.75,235.25c-4.42-8.98-4.1-16.82.75-25.5.34,0,.73.97.75,1.12.36,2.49-.13,21.35-.75,23.5-.12.43-.32.72-.75.88Z"/>
          </g>
        </g>
      </g>
    </pattern>
  </defs>
  <g class="cls-16">
    <g id="Layer_2" data-name="Layer 2">
      <g id="Layer_1-2" data-name="Layer 1">
        <g>
          <g>
            <g>
              <path class="cls-38" d="M199.74,602.74c-3.67-60.92,5.08-121.17,30.8-179.69,22.3-50.73,53.79-88.17,94.56-111.54,7-16.24,13.99-32.47,20.95-48.63-22.32,4.89-44.67,11.18-67.05,18.78-182.67,62.03-256.06,296.36-139.53,461.37,20.05-46.71,40.15-93.51,60.26-140.28Z"/>
              <path class="cls-36" d="M701.64,967.67c-2.78-4.29-4.78-8.8-5.66-13.08-4.71-23.01-11.18-39.56-18.87-61.27-31.08,15.52-65.99,20.86-103.26,22.39,1.45-15.41,3.92-27.82,3.47-40.14-.56-15.44,6.41-21.32,20.29-25.83,18.49-6.02,35.92-13.5,52.25-22.29-8.37-17.98-17.3-35.88-26.55-53.9-3.02,2.66-6.12,5.27-9.4,7.78-21.31,16.36-45.24,29.24-67.67,44.16-4.93,3.28-12.09,8.53-12.18,12.99-.91,44.51-.55,83.42-.55,129.18h168.13Z"/>
              <path class="cls-38" d="M577.93,323.45c32.03,23.01,58.01,55.51,77.92,97.18,23.78,49.78,31.65,102.03,31.74,155.27,22.46,51.67,44.96,103.38,67.43,154.97,28.88-44.64,46.03-98.24,49.22-157.86,6.5-121.77-63.36-234.38-178.49-285.19-24.66-10.89-49.39-19.06-74.16-25.01l13.25,30.51c4.34,10.01,8.73,20.1,13.09,30.15Z"/>
              <path class="cls-35" d="M323.07,814.75c-18.45-9.36-35.74-20.22-51.09-32.93-8.59,17.08-16.88,34.1-24.65,51.21,13.05,6.21,26.56,11.71,40.44,16.65,7.06,2.52,16.34,8.8,17.89,15.03,3.95,15.9,4.11,32.74,5.98,51.12-12.71-.89-22.2-.48-31.22-2.38-20.13-4.23-40.93-7.04-59.93-13.96-8.31,23.95-15.12,42.81-19.97,68.2h153.88c0-35.59-1.97-63.82.61-97.3,2.15-27.75-6.45-42.71-31.94-55.64Z"/>
            </g>
            <g class="cls-17">
              <path class="cls-1" d="M111.67,473.82c-26.2,81.47-16.85,167.39,25.33,239.5,16.18-37.68,32.39-75.41,48.6-113.12-3.43-64.98,7.39-126.49,32.16-182.86,22.84-51.96,55.24-90.85,96.34-115.68l7.93-18.41c-12.8,3.46-25.7,7.39-38.57,11.76-81.54,27.69-144.16,92.86-171.8,178.81Z"/>
              <path class="cls-1" d="M547.47,953.58h134c-3.28-15.31-7.45-25.12-12.65-41.14-25.87,10.32-55.74,15.76-94.41,17.35l-16,.66,1.51-16.07c.49-5.19,1.07-9.93,1.64-14.51,1.09-8.89,2.04-16.57,1.78-23.78-.95-26.3,15.52-35.07,29.97-39.76,13.09-4.26,25.84-9.37,38.05-15.24-3.85-8.01-8.03-16.5-12.68-25.74-12.95,9.59-26.66,18.05-39.96,26.25-8.22,5.07-16.72,10.31-24.78,15.67-3.23,2.15-5.01,3.6-5.96,4.49-.64,33.49-.59,60.86-.53,95.73,0,5.35.02,10.72.03,16.1Z"/>
              <path class="cls-1" d="M620.15,300.72c-14.26-6.3-28.99-11.82-44.01-16.53l13.07,30.11c32.32,24.11,58.97,57.81,79.23,100.22,21.84,45.71,32.68,97.55,33.11,158.4,18.4,42.34,36.84,84.72,55.26,127.02,19.72-38.01,30.96-80.84,33.47-127.69,6.23-116.58-60.55-223.16-170.13-271.52Z"/>
              <path class="cls-1" d="M340.33,953.6c-.07-6.02-.17-12-.27-17.86-.43-24.76-.83-42.53,1.02-66.45,1.71-22.12-3.73-31.53-24.28-41.95-14.52-7.37-27.87-15.41-39.88-24.01-3.94,8.01-7.55,15.5-10.93,22.7,8.43,3.63,17.28,7.1,26.44,10.36,8.41,3,23.5,11.62,26.8,24.89,3.08,12.4,4.02,24.68,5.02,37.69.38,5.02.77,10.15,1.31,15.41l1.7,16.66-16.57-1.16c-4.11-.29-7.87-.43-11.38-.57-7.5-.29-14.58-.57-21.72-2.07-5.1-1.07-10.25-2.05-15.4-3.03-10.82-2.06-21.9-4.17-32.8-7.16-4.59,14.29-8.43,22.63-11.61,36.54h122.57Z"/>
            </g>
            <path class="cls-1" d="M884.65,943.49c-44.01-7.49-68.96-30.83-87.09-68.75-9.8-20.52-21.79-40.02-30.87-60.83-87.22-199.98-174.04-400.13-260.95-600.26-18.29-42.14-41.61-166.76-60.95-211.67l5.21,281.11c50.63,119.23,98.12,231.04,146.76,345.54h-146.76v54.87c45.59-.22,91.19-.19,136.78,0,7.3.03,18.16,5.61,21.31,11.76,42.99,83.99,90.56,160.44,109.89,254.74,1.4,6.84,11.72,16.68,18.11,16.85,48.85,1.32,97.74.87,146.61.07,5.82-.09,11.55-5.58,17.31-8.57-5.07-5.14-9.57-13.88-15.35-14.86Z"/>
            <path class="cls-1" d="M303.27,628.64c48.22-115.45,95.06-227.6,145.52-348.39.41.95.81,1.9,1.21,2.85L444.79,1.99c-.29-.67-.57-1.32-.86-1.99-4.28,8.95-1.59,96.16-3.73,101.15-105.19,244.29-210.56,488.5-315.33,732.97-23.24,54.23-49.83,98.15-114.26,111.23-4.2.84-7.1,8.16-10.62,12.47,4.61,2.95,9.19,8.41,13.84,8.46,54.19.59,108.37.38,163.98.38,17.95-97.55,64.85-177.39,109.48-263.67,4.16-8,14.74-17.8,22.51-17.94,46.72-.84,93.46-1.31,140.19-1.54v-54.87h-146.73Z"/>
          </g>
          <path class="cls-37" d="M784.97,880.86c-4.09-8.56-8.72-17.21-13.2-25.58-6.14-11.47-12.49-23.33-17.88-35.69-73.95-169.55-148.85-342.06-221.27-508.88l-39.68-91.4c-13.16-30.3-26.22-60.67-39.71-92.03l-4.52-10.5-66.55,154.51c-80.24,186.25-163.21,378.85-244.45,568.42-20.92,48.8-46.05,91.91-100.73,112.68,25.69.18,50.54.21,72.31.21l57.05-.03c18.36-88.05,59.34-161.32,99.04-237.73,3.18-6.12,6.36-12.25,9.53-18.37,5.43-10.45,19.76-25.26,34.66-25.51,44.35-.8,90.27-1.3,140.37-1.54,45.63-.22,91.27-.19,136.9,0,11.5.05,27.77,7.85,33.68,19.39,5.95,11.62,11.98,23.2,18.02,34.78,37.36,71.69,75.99,140.19,93.06,223.21.82,1.78,4,4.98,5.93,5.99,20.44.54,41.93.8,65.64.8,21.72,0,43.14-.23,61.61-.49-44.68-14.41-66.75-44.96-79.79-72.24ZM282.22,642.73l166.47-398.54,14.16,33.37c50.63,119.23,98.12,231.03,146.76,345.53l8.34,19.64h-335.73Z"/>
        </g>
      </g>
    </g>
  </g>
</svg>